<svg width="127" height="55" viewBox="0 0 127 55" fill="none" xmlns="http://www.w3.org/2000/svg">
<rect y="49.5" width="40" height="5" fill="#008C45"/>
<rect x="40" y="49.5" width="40" height="5" fill="#F4F9FF"/>
<rect x="80" y="49.5" width="40" height="5" fill="#CD212A"/>
<path d="M1.05114 39.5L5.88068 10.4091H11.1506L7.05966 35.0824H19.8722L19.1335 39.5H1.05114ZM23.4801 39.5L27.1165 17.6818H32.2585L28.6222 39.5H23.4801ZM30.4403 14.5568C29.6165 14.5568 28.9347 14.2822 28.3949 13.733C27.8551 13.1837 27.6184 12.5256 27.6847 11.7585C27.7509 10.9915 28.0966 10.3333 28.7216 9.78409C29.3561 9.23485 30.0805 8.96023 30.8949 8.96023C31.7188 8.96023 32.3958 9.23485 32.9261 9.78409C33.4659 10.3333 33.7027 10.9915 33.6364 11.7585C33.5795 12.5256 33.2339 13.1837 32.5994 13.733C31.9744 14.2822 31.2547 14.5568 30.4403 14.5568ZM57.0348 17.6818L45.6286 39.5H39.9467L35.8132 17.6818H41.0973L43.4268 33.8892H43.6541L51.3672 17.6818H57.0348ZM62.5533 39.9403C61.1707 39.9403 59.968 39.6941 58.9453 39.2017C57.9226 38.6998 57.1697 37.9612 56.6868 36.9858C56.2133 36.0104 56.0949 34.8078 56.3317 33.3778C56.54 32.1468 56.9377 31.1288 57.5249 30.3239C58.1214 29.5189 58.8506 28.875 59.7124 28.392C60.5836 27.8996 61.5305 27.5303 62.5533 27.2841C63.5855 27.0379 64.6366 26.858 65.7067 26.7443C67.0135 26.6117 68.0694 26.4886 68.8743 26.375C69.6887 26.2614 70.2995 26.0909 70.7067 25.8636C71.1139 25.6269 71.3601 25.267 71.4453 24.7841V24.6989C71.6158 23.6288 71.4453 22.8002 70.9339 22.2131C70.4226 21.6259 69.5703 21.3324 68.3771 21.3324C67.1271 21.3324 66.076 21.607 65.2237 22.1562C64.3714 22.7055 63.7512 23.3542 63.3629 24.1023L58.7038 23.4205C59.291 22.0947 60.0959 20.9867 61.1186 20.0966C62.1413 19.197 63.3203 18.5246 64.6555 18.0795C66.0002 17.625 67.4349 17.3977 68.9595 17.3977C70.0012 17.3977 71.0192 17.5208 72.0135 17.767C73.0173 18.0133 73.9027 18.4205 74.6697 18.9886C75.4463 19.5473 76.0144 20.3097 76.3743 21.2756C76.7436 22.2415 76.8052 23.4489 76.5589 24.8977L74.13 39.5H69.1868L69.6982 36.5028H69.5277C69.1205 37.1089 68.5902 37.6771 67.9368 38.2074C67.2834 38.7282 66.5069 39.1496 65.6072 39.4716C64.7076 39.7841 63.6896 39.9403 62.5533 39.9403ZM64.4993 36.1619C65.5315 36.1619 66.4595 35.9583 67.2834 35.5511C68.1072 35.1345 68.7843 34.5852 69.3146 33.9034C69.8449 33.2216 70.1764 32.4782 70.3089 31.6733L70.7351 29.1023C70.5457 29.2348 70.2521 29.358 69.8544 29.4716C69.4567 29.5852 69.0116 29.6847 68.5192 29.7699C68.0362 29.8551 67.558 29.9309 67.0845 29.9972C66.611 30.0634 66.2038 30.1203 65.8629 30.1676C65.0769 30.2718 64.3572 30.4422 63.7038 30.679C63.0599 30.9157 62.5249 31.2472 62.0987 31.6733C61.6821 32.09 61.4216 32.6297 61.3175 33.2926C61.166 34.2301 61.3885 34.9451 61.9851 35.4375C62.5817 35.9205 63.4197 36.1619 64.4993 36.1619ZM89.272 10.4091L84.4425 39.5H79.3004L84.13 10.4091H89.272ZM89.7301 39.5L93.3665 17.6818H98.5085L94.8722 39.5H89.7301ZM96.6903 14.5568C95.8665 14.5568 95.1847 14.2822 94.6449 13.733C94.1051 13.1837 93.8684 12.5256 93.9347 11.7585C94.0009 10.9915 94.3466 10.3333 94.9716 9.78409C95.6061 9.23485 96.3305 8.96023 97.1449 8.96023C97.9688 8.96023 98.6458 9.23485 99.1761 9.78409C99.7159 10.3333 99.9527 10.9915 99.8864 11.7585C99.8295 12.5256 99.4839 13.1837 98.8494 13.733C98.2244 14.2822 97.5047 14.5568 96.6903 14.5568ZM109.762 39.9261C107.575 39.9261 105.766 39.4716 104.336 38.5625C102.906 37.6439 101.902 36.3466 101.325 34.6705C100.756 32.9848 100.662 31.0009 101.04 28.7188C101.41 26.4744 102.163 24.5047 103.299 22.8097C104.435 21.1051 105.856 19.7794 107.56 18.8324C109.274 17.8759 111.168 17.3977 113.242 17.3977C114.587 17.3977 115.823 17.6155 116.95 18.0511C118.076 18.4773 119.028 19.1402 119.805 20.0398C120.581 20.9394 121.116 22.0852 121.41 23.4773C121.703 24.8598 121.689 26.5076 121.367 28.4205L121.126 29.9972H103.228L103.782 26.5312H116.737C116.907 25.5464 116.85 24.6705 116.566 23.9034C116.282 23.1269 115.808 22.5161 115.146 22.071C114.483 21.6259 113.654 21.4034 112.66 21.4034C111.647 21.4034 110.7 21.6638 109.819 22.1847C108.948 22.696 108.214 23.3589 107.617 24.1733C107.021 24.9877 106.642 25.8447 106.481 26.7443L105.898 30.0682C105.69 31.4318 105.737 32.5445 106.04 33.4062C106.344 34.268 106.874 34.9025 107.631 35.3097C108.389 35.7169 109.345 35.9205 110.501 35.9205C111.258 35.9205 111.959 35.8163 112.603 35.608C113.247 35.3996 113.82 35.0871 114.322 34.6705C114.833 34.2443 115.259 33.7235 115.6 33.108L120.302 33.6477C119.781 34.9167 119.019 36.0246 118.015 36.9716C117.011 37.9091 115.808 38.6383 114.407 39.1591C113.015 39.6705 111.467 39.9261 109.762 39.9261Z" fill="url(#paint0_linear_14_10418)"/>
<defs>
<linearGradient id="paint0_linear_14_10418" x1="63.5" y1="17.1552" x2="63.5" y2="36.9828" gradientUnits="userSpaceOnUse">
<stop stop-color="#008C45"/>
<stop offset="0.493" stop-color="#BFBFBF"/>
<stop offset="1" stop-color="#CD212A"/>
</linearGradient>
</defs>
</svg>
