<svg width="78" height="80" viewBox="0 0 78 80" fill="none" xmlns="http://www.w3.org/2000/svg">
<path d="M73.0457 59.5181C58.7448 82.1222 11.2573 87.638 1.86897 67.8459C-7.62853 48.0538 20.9732 2.95376 44.7715 0.141766C68.4607 -2.67023 87.3465 37.0221 73.0457 59.5181Z" fill="#24A148"/>
<g clip-path="url(#clip0_78_4628)">
<path d="M56.4167 52.0835H53.25V48.9168C53.25 48.4969 53.0832 48.0942 52.7863 47.7972C52.4894 47.5003 52.0866 47.3335 51.6667 47.3335C51.2468 47.3335 50.8441 47.5003 50.5471 47.7972C50.2502 48.0942 50.0834 48.4969 50.0834 48.9168V52.0835H46.9167C46.4968 52.0835 46.0941 52.2503 45.7971 52.5472C45.5002 52.8442 45.3334 53.2469 45.3334 53.6668C45.3334 54.0868 45.5002 54.4895 45.7971 54.7864C46.0941 55.0833 46.4968 55.2502 46.9167 55.2502H50.0834V58.4168C50.0834 58.8368 50.2502 59.2395 50.5471 59.5364C50.8441 59.8333 51.2468 60.0002 51.6667 60.0002C52.0866 60.0002 52.4894 59.8333 52.7863 59.5364C53.0832 59.2395 53.25 58.8368 53.25 58.4168V55.2502H56.4167C56.8366 55.2502 57.2394 55.0833 57.5363 54.7864C57.8332 54.4895 58 54.0868 58 53.6668C58 53.2469 57.8332 52.8442 57.5363 52.5472C57.2394 52.2503 56.8366 52.0835 56.4167 52.0835Z" fill="white"/>
<path d="M53.25 31.5H48.5C48.5 28.9804 47.4991 26.5641 45.7175 24.7825C43.9359 23.0009 41.5196 22 39 22C36.4804 22 34.0641 23.0009 32.2825 24.7825C30.5009 26.5641 29.5 28.9804 29.5 31.5H24.75C23.4902 31.5 22.282 32.0004 21.3912 32.8912C20.5004 33.782 20 34.9902 20 36.25V52.0833C20.0025 54.1822 20.8374 56.1944 22.3215 57.6785C23.8056 59.1626 25.8178 59.9975 27.9167 60H42.1667C42.5866 60 42.9893 59.8332 43.2863 59.5363C43.5832 59.2393 43.75 58.8366 43.75 58.4167C43.75 57.9967 43.5832 57.594 43.2863 57.2971C42.9893 57.0001 42.5866 56.8333 42.1667 56.8333H27.9167C26.6569 56.8333 25.4487 56.3329 24.5579 55.4421C23.6671 54.5513 23.1667 53.3431 23.1667 52.0833V36.25C23.1667 35.8301 23.3335 35.4273 23.6304 35.1304C23.9273 34.8335 24.3301 34.6667 24.75 34.6667H29.5V37.8333C29.5 38.2533 29.6668 38.656 29.9637 38.9529C30.2607 39.2499 30.6634 39.4167 31.0833 39.4167C31.5033 39.4167 31.906 39.2499 32.2029 38.9529C32.4999 38.656 32.6667 38.2533 32.6667 37.8333V34.6667H45.3333V37.8333C45.3333 38.2533 45.5001 38.656 45.7971 38.9529C46.094 39.2499 46.4967 39.4167 46.9167 39.4167C47.3366 39.4167 47.7393 39.2499 48.0363 38.9529C48.3332 38.656 48.5 38.2533 48.5 37.8333V34.6667H53.25C53.6699 34.6667 54.0727 34.8335 54.3696 35.1304C54.6665 35.4273 54.8333 35.8301 54.8333 36.25V44.1667C54.8333 44.5866 55.0001 44.9893 55.2971 45.2863C55.594 45.5832 55.9967 45.75 56.4167 45.75C56.8366 45.75 57.2393 45.5832 57.5363 45.2863C57.8332 44.9893 58 44.5866 58 44.1667V36.25C58 34.9902 57.4996 33.782 56.6088 32.8912C55.718 32.0004 54.5098 31.5 53.25 31.5ZM32.6667 31.5C32.6667 29.8203 33.3339 28.2094 34.5217 27.0217C35.7094 25.8339 37.3203 25.1667 39 25.1667C40.6797 25.1667 42.2906 25.8339 43.4783 27.0217C44.6661 28.2094 45.3333 29.8203 45.3333 31.5H32.6667Z" fill="white"/>
</g>
<defs>
<clipPath id="clip0_78_4628">
<rect width="38" height="38" fill="white" transform="translate(20 22)"/>
</clipPath>
</defs>
</svg>
