<svg width="743" height="522" viewBox="0 0 743 522" fill="none" xmlns="http://www.w3.org/2000/svg">
<g filter="url(#filter0_f_98_721)">
<path d="M257.195 113.234C283.828 129.489 321.912 137.094 338.635 158.063C355.586 178.855 351.175 213.012 336.042 238.962C320.909 264.913 294.85 282.632 271.821 305.702C248.792 328.773 228.818 356.992 204.643 361.725C180.265 366.432 151.914 347.475 125.078 331.194C98.0126 315.09 72.8948 301.511 60.0881 280.634C47.3076 259.554 46.8644 230.972 47.1821 202.901C47.4997 174.831 48.7813 147.298 60.6938 125.479C72.8096 103.686 95.5561 87.6069 120.473 75.5285C145.39 63.4502 172.248 55.5499 193.497 63.8747C214.949 72.2259 230.359 96.9531 257.195 113.234Z" fill="#008C45"/>
</g>
<g filter="url(#filter1_f_98_721)">
<path d="M438.79 119.82C456.39 140.3 465.014 166.499 475.046 191.406C485.078 216.498 496.342 240.299 496.342 264.468C496.342 288.822 484.902 313.73 469.942 339.191C454.806 364.652 436.15 390.851 410.63 403.397C385.11 415.943 352.902 414.836 328.086 401.183C303.27 387.345 285.67 360.777 267.718 336.239C249.766 311.7 231.286 289.191 230.758 265.575C230.23 242.144 247.654 217.79 262.262 195.465C276.87 173.141 288.838 152.661 306.086 132.182C323.334 111.702 345.862 91.0382 370.502 87.9017C394.966 84.9497 421.366 99.5252 438.79 119.82Z" fill="#F2F4F8"/>
</g>
<g clip-path="url(#clip0_98_721)" filter="url(#filter2_f_98_721)">
<path d="M595.419 491.715C568.692 495.817 538.721 481.949 511.833 468.604C484.944 455.259 460.997 442.312 448.346 422.381C435.573 402.588 434.114 376.074 440.295 354.642C446.475 333.209 460.295 316.857 465.922 293.201C471.673 269.407 469.231 238.31 481.601 214.485C493.952 190.397 521.236 173.444 551.8 169.302C582.1 165.173 615.558 173.993 641.514 192.933C667.329 211.747 685.377 240.693 693.553 270.477C701.729 300.26 699.909 331.019 694.122 359.971C688.213 389.061 678.742 416.459 662.063 441.137C645.506 465.677 622.146 487.613 595.419 491.715Z" fill="#CD212A"/>
</g>
<path d="M318.506 73.983C318.553 76.3589 320.079 78.539 322.078 79.8289C324.078 81.1187 326.494 81.622 328.871 81.7654C328.945 79.3156 327.838 76.8577 325.954 75.2855C324.07 73.7142 321.448 73.0629 319.045 73.5699" fill="#62AB50"/>
<path d="M303.584 66.5971C301.705 64.3538 300.806 61.3213 301.16 58.4196C301.515 55.5178 303.117 52.7884 305.481 51.061C307.002 53.2989 307.719 56.0698 307.473 58.7632C307.227 61.4566 306.019 64.0525 304.117 65.9792" fill="#62AB50"/>
<path d="M300.351 68.9651C298.134 68.635 296.252 66.9915 295.261 64.9846C294.27 62.9785 294.081 60.6559 294.314 58.4307C298.048 60.3204 300.53 64.4452 300.445 68.6224" fill="#62AB50"/>
<path d="M419.993 70.1104C419.254 68.9739 417.66 68.43 416.425 68.9938C417.17 68.2848 417.927 67.5614 418.431 66.6657C420.584 62.8421 415.903 61.3231 413.079 62.8935C413.683 62.3018 414.295 61.7011 414.718 60.9696C415.141 60.238 415.358 59.3469 415.114 58.5378C414.783 57.4427 413.643 56.7202 412.5 56.6454C411.356 56.5696 410.234 57.0441 409.306 57.7142C410.003 56.5398 410.721 55.2942 410.733 53.9295C410.769 49.562 405.345 51.4336 403.227 52.7983C397.737 56.336 392.815 62.5201 392.056 69.0975C388.598 65.2901 383.682 62.7131 378.685 61.628C375.798 61.0011 372.453 60.7251 369.564 61.4503C368.413 61.739 366.561 62.4741 366.108 63.7144C365.477 65.4417 367.481 67.6101 368.932 68.1838C367.574 68.1612 366.186 68.7457 365.366 69.8263C364.546 70.9069 364.375 72.4809 365.065 73.6481C365.756 74.8153 367.323 75.4268 368.582 74.9163C367.807 75.5928 367.02 76.2828 366.477 77.156C364.161 80.8839 368.774 82.6022 371.662 81.1536C371.033 81.7183 370.395 82.2928 369.941 83.0054C369.488 83.718 369.232 84.5993 369.441 85.4174C369.724 86.525 370.834 87.2962 371.973 87.4198C373.112 87.5443 374.253 87.1185 375.21 86.4889C374.463 87.6327 373.692 88.8468 373.622 90.2097C373.397 94.5718 378.897 92.9337 381.071 91.661C386.847 88.2803 392.151 82.0998 393.006 75.3718L393.059 75.6577C396.688 79.4037 401.79 81.8175 406.901 82.7005C409.813 83.2039 413.166 83.3356 416.022 82.4877C417.159 82.1503 418.977 81.3358 419.377 80.0784C419.933 78.3249 417.838 76.2458 416.364 75.7335C417.721 75.6974 419.082 75.0543 419.855 73.9403C420.63 72.8273 420.733 71.247 419.993 70.1104Z" fill="#DDA928"/>
<path d="M401.997 61.9194C401.952 61.7291 399.187 62.5932 396.697 65.0349C394.187 67.4541 393.248 70.1899 393.438 70.2404C393.652 70.3459 394.857 67.8853 397.243 65.5942C399.601 63.2751 402.098 62.1359 401.997 61.9194Z" fill="#AF851C"/>
<path d="M403.199 68.5104C403.079 68.321 401.178 69.3276 398.761 70.3803C396.348 71.4437 394.32 72.1599 394.378 72.3764C394.428 72.5775 396.6 72.1861 399.075 71.0964C401.555 70.014 403.313 68.6836 403.199 68.5104Z" fill="#AF851C"/>
<path d="M407.956 75.04C407.899 74.81 405.105 75.4965 401.624 75.3034C398.141 75.1465 395.431 74.184 395.35 74.4068C395.255 74.5782 397.946 75.915 401.585 76.0837C405.221 76.2803 408.033 75.2195 407.956 75.04Z" fill="#AF851C"/>
<path d="M378.409 68.9579C378.454 69.1915 381.147 68.6575 384.419 69.1617C387.697 69.6263 390.119 70.917 390.23 70.7069C390.354 70.5553 387.989 68.8848 384.534 68.3887C381.084 67.8628 378.335 68.7766 378.409 68.9579Z" fill="#AF851C"/>
<path d="M381.3 75.0028C381.308 75.2102 383.515 75.2625 386.16 74.6916C388.807 74.1296 390.798 73.1789 390.72 72.9868C390.641 72.7775 388.576 73.3819 385.996 73.9276C383.418 74.485 381.287 74.7791 381.3 75.0028Z" fill="#AF851C"/>
<path d="M381.274 83.0761C381.317 83.2664 384.219 82.4853 387.053 80.2014C389.904 77.9401 391.302 75.2846 391.125 75.2007C390.929 75.0672 389.296 77.4296 386.563 79.5917C383.853 81.7808 381.185 82.856 381.274 83.0761Z" fill="#AF851C"/>
<path d="M231.606 107.734C220.332 107.581 213.736 119.475 219.68 129.018C226.238 139.546 240.797 136.733 247.643 128.398C250.142 125.354 245.044 121.989 242.568 125.004C238.236 130.278 230.381 131.751 225.395 126.528C220.742 121.652 224.731 113.728 231.154 113.815C235.082 113.868 235.545 107.788 231.606 107.734Z" fill="#8D9390"/>
<path d="M278.043 93.7088C276.881 93.2929 275.726 92.8501 274.574 92.4595C270.231 90.9865 265.244 90.9504 260.785 90.8936C254.52 90.8124 248.069 92.1528 242.265 94.4827C237.695 96.3174 232.97 98.0618 229.12 101.415C228.203 102.214 227.304 103.061 226.387 103.887C226.29 106.932 227.131 110.344 227.899 112.883C230.356 121.018 234.583 129.349 241.77 134.288C248.747 139.082 264.875 138.379 271.373 132.795C279.667 125.668 281.058 112.708 280.072 102.604C279.815 99.9641 279.294 96.4896 278.043 93.7088Z" fill="#B1B2B1"/>
<path d="M254.192 107.873C266.858 105.378 276.586 100.624 275.919 97.2549C275.253 93.8859 264.444 93.1777 251.778 95.6729C239.111 98.1681 229.383 102.922 230.05 106.291C230.717 109.66 241.525 110.368 254.192 107.873Z" fill="#8D9390"/>
<path d="M232.608 108.406C236.638 109.802 244.912 109.695 254.189 107.867C263.466 106.039 271.159 103 274.354 100.181C270.325 98.7844 262.051 98.8918 252.774 100.72C243.498 102.548 235.803 105.586 232.608 108.406Z" fill="#834F44"/>
<path d="M274.51 323.932C271.875 328.729 267.035 332.042 261.573 332.141C258.138 325.857 257.445 318.642 260.198 311.867C262.741 305.609 267.688 300.561 273.279 296.755C274.734 301.195 276.197 305.673 276.718 310.315C277.241 314.958 276.759 319.836 274.51 323.932Z" fill="#DDA928"/>
<path d="M239.051 282.14C240.483 290.874 238.826 299.55 233.587 306.644C226.392 301.963 222.102 293.913 221.404 285.325C220.716 276.851 223.328 268.353 227.494 260.936C233.58 266.445 237.725 274.048 239.051 282.14Z" fill="#DDA928"/>
<path d="M249.745 316.029C246.579 312.51 244.783 307.794 244.806 303.065C244.83 298.336 246.673 293.638 249.873 290.15C252.921 293.765 254.681 298.44 254.774 303.164C254.866 307.888 253.288 312.627 250.384 316.358" fill="#DDA928"/>
<path d="M244.178 321.236C241.526 319.745 239.855 316.845 239.376 313.845C238.897 310.845 239.498 307.758 240.56 304.911C244.376 309.26 245.793 315.582 244.2 321.139" fill="#DDA928"/>
<path d="M209.082 292.697C209.094 292.599 216.367 296.59 217.014 297.072C219.529 298.95 221.784 301.176 223.707 303.655C227.568 308.63 230.274 314.373 230.269 320.636C226.395 320.211 222.904 320.162 219.508 318.092C216.657 316.355 214.243 313.9 212.519 311.049C209.24 305.62 208.339 298.991 209.082 292.697Z" fill="#DDA928"/>
<path d="M229.437 328.309C226.26 326.489 222.431 325.981 218.799 326.465C215.167 326.951 211.713 328.378 208.539 330.206C211.247 333.156 215.289 334.836 219.294 334.677C223.3 334.518 227.196 332.524 229.661 329.371" fill="#DDA928"/>
<path d="M230.966 337.897C226.342 338.135 221.807 339.873 218.211 342.784C222.025 346.04 227.08 347.812 232.097 347.654C234.55 347.577 236.985 347.037 239.25 346.099C241.843 345.026 243.062 343.831 244.808 341.67C244.83 341.643 239.048 338.99 238.551 338.839C236.102 338.092 233.523 337.765 230.966 337.897Z" fill="#DDA928"/>
<path d="M252.749 351.727C249.835 350.026 246.333 349.476 242.976 349.821C239.618 350.165 236.391 351.36 233.41 352.941C235.869 355.774 239.642 357.421 243.397 357.302C247.151 357.183 250.81 355.299 253.084 352.315" fill="#DDA928"/>
<path d="M227.453 276.826C228.108 310.817 247.364 342.222 277.417 358.232C278.034 358.56 278.581 357.626 277.965 357.298C248.244 341.466 229.186 310.451 228.539 276.826C228.524 276.129 227.439 276.128 227.453 276.826Z" fill="#AF851C"/>
<path d="M255.75 340.916C262.932 333.29 267.309 323.531 268.249 313.112C268.311 312.416 267.226 312.422 267.164 313.112C266.251 323.235 261.958 332.745 254.983 340.151C254.504 340.658 255.27 341.425 255.75 340.916Z" fill="#AF851C"/>
<path d="M246.3 329.115C250.804 319.875 252.285 309.577 250.577 299.446C250.462 298.759 249.417 299.051 249.531 299.734C251.187 309.556 249.729 319.613 245.364 328.568C245.059 329.193 245.995 329.742 246.3 329.115Z" fill="#AF851C"/>
<path d="M241.988 314.518C242.649 318.466 244.194 322.065 246.602 325.266C247.017 325.817 247.959 325.278 247.539 324.719C245.185 321.592 243.68 318.089 243.034 314.231C242.919 313.543 241.874 313.836 241.988 314.518Z" fill="#AF851C"/>
<path d="M217.177 309.233C223.39 317.787 232.349 323.931 242.597 326.606C243.274 326.783 243.561 325.739 242.885 325.562C232.924 322.961 224.159 317.01 218.115 308.687C217.708 308.128 216.766 308.667 217.177 309.233Z" fill="#AF851C"/>
<path d="M217.755 332.13C225.184 331.821 232.259 329.428 238.323 325.13C238.888 324.73 238.347 323.791 237.775 324.196C231.864 328.385 225.001 330.747 217.754 331.048C217.058 331.076 217.055 332.159 217.755 332.13Z" fill="#AF851C"/>
<path d="M229.365 343.562C237.41 344.051 245.331 342.45 252.567 338.911C253.195 338.604 252.645 337.671 252.019 337.977C244.953 341.433 237.218 342.958 229.365 342.48C228.666 342.437 228.671 343.52 229.365 343.562Z" fill="#AF851C"/>
<path d="M244.558 353.715C251.301 353.707 257.833 352.201 263.906 349.277C264.536 348.974 263.985 348.04 263.358 348.343C257.456 351.184 251.11 352.624 244.557 352.633C243.858 352.633 243.858 353.716 244.558 353.715Z" fill="#AF851C"/>
<path d="M232.176 241.755C233.926 241.691 235.729 240.538 236.14 238.709C236.664 236.378 233.764 234.284 231.62 234.947C235.922 233.617 235.17 226.494 230.185 227.349C232.685 227.06 234.536 224.203 233.772 221.809C233.008 219.415 229.842 218.151 227.635 219.359C229.312 217.926 230.324 215.49 230.001 213.283C229.754 211.596 226.895 209.56 225.3 211.243C226.71 209.755 228.206 205.406 226.195 203.764C224.288 202.208 220.685 204.283 219.604 205.894C220.005 204.312 219.06 202.548 217.578 201.858C216.097 201.168 214.237 201.511 212.988 202.565C211.739 203.617 211.092 205.29 211.133 206.921C211.353 204.25 208.658 201.747 206.003 202.157C203.348 202.567 201.538 205.766 202.557 208.246C201.544 206.906 200.532 204.73 198.78 204.337C196.846 203.903 195.128 205.282 194.564 207.027C194.239 208.037 194.201 209.113 194.166 210.174C193.754 208.048 191.212 206.62 189.177 207.372C187.142 208.125 186.145 210.86 187.22 212.741C185.54 212.453 182.967 211.394 181.424 212.397C180.11 213.252 179.481 214.976 179.806 216.507C180.13 218.038 181.325 219.319 182.784 219.89C180.535 219.011 178.396 222.006 178.159 223.799C177.786 226.615 180.275 228.253 182.749 228.945C180.3 229.796 178.889 232.848 179.828 235.26C180.768 237.671 183.873 238.971 186.256 237.949C184.968 239.034 183.646 240.163 182.91 241.675C182.174 243.186 182.187 245.196 183.396 246.365C184.804 247.725 187.074 247.425 188.989 247.01C187.176 247.907 186.154 250.152 186.669 252.104C187.184 254.056 189.181 255.509 191.201 255.399C193.22 255.29 195.049 253.632 195.35 251.635C194.649 253.843 196.477 256.462 198.795 256.572C201.625 256.706 202.761 253.806 202.839 251.416C202.437 254.063 204.96 256.735 207.631 256.496C210.302 256.257 212.306 253.179 211.439 250.646C211.082 252.218 212.088 253.955 213.604 254.514C214.966 255.015 217.117 254.549 217.879 253.191C218.52 252.047 218.131 250.14 218.164 248.834C218.292 250.412 219.51 251.843 221.051 252.223C222.591 252.604 224.338 251.907 225.19 250.571C226.042 249.235 225.935 247.361 224.937 246.13C225.665 247.718 227.359 248.845 229.108 248.8C230.857 248.756 232.532 247.481 232.939 245.783C233.347 244.086 232.369 242.137 230.726 241.536C231.185 241.703 231.678 241.773 232.176 241.755Z" fill="#CAA028"/>
<path d="M223.425 213.3C222.16 209.449 220.077 209.268 216.213 209.366C211.98 209.474 207.668 210.1 203.401 211.1C199.085 211.866 194.877 212.992 190.946 214.564C187.359 215.998 185.516 216.987 185.882 221.022C186.397 226.707 187.269 232.384 188.858 237.875C189.682 240.724 190.411 245.61 192.96 247.53C194.993 249.062 198.834 248.454 201.175 248.248C204.124 247.989 207.058 247.556 209.96 246.973C209.987 246.969 210.013 246.964 210.039 246.959C210.287 246.913 210.533 246.856 210.78 246.806C211.026 246.754 211.274 246.71 211.52 246.655C211.546 246.649 211.571 246.642 211.598 246.637C214.495 246.025 217.361 245.266 220.173 244.34C222.404 243.606 226.173 242.648 227.433 240.439C229.013 237.669 227.746 232.894 227.373 229.952C226.656 224.281 225.206 218.723 223.425 213.3Z" fill="#DDA928"/>
<path d="M200.794 244.862C200.808 244.704 200.061 244.568 198.986 244.1C197.917 243.644 196.517 242.781 195.454 241.395C194.394 240.008 193.927 238.433 193.766 237.284C193.596 236.127 193.661 235.371 193.504 235.344C193.381 235.314 193.044 236.049 193.029 237.334C193.006 238.601 193.405 240.435 194.624 242.028C195.844 243.62 197.513 244.487 198.744 244.797C199.991 245.12 200.79 244.989 200.794 244.862Z" fill="#AF851C"/>
<path d="M222.957 223.389C223.088 223.373 223.149 222.246 222.95 220.408C222.839 219.492 222.642 218.389 222.192 217.212C221.735 216.047 221.015 214.8 219.874 213.815C218.738 212.82 217.286 212.33 216.011 212.27C214.725 212.192 213.6 212.435 212.709 212.719C210.92 213.309 209.996 214.017 210.053 214.122C210.123 214.273 211.165 213.808 212.898 213.431C213.762 213.251 214.809 213.107 215.93 213.227C217.051 213.334 218.226 213.763 219.193 214.606C220.167 215.444 220.84 216.534 221.303 217.578C221.759 218.631 222.024 219.661 222.222 220.533C222.599 222.286 222.802 223.409 222.957 223.389Z" fill="#AF851C"/>
<path d="M218.863 216.211C219.105 216.067 218.761 215.141 217.757 214.583C216.756 214.022 215.785 214.215 215.789 214.497C215.775 214.791 216.489 215.058 217.248 215.492C218.017 215.91 218.619 216.377 218.863 216.211Z" fill="#AF851C"/>
<path d="M201.229 242.379C201.242 242.087 200.6 241.823 199.852 241.549C199.1 241.285 198.436 241.08 198.261 241.314C198.085 241.536 198.583 242.202 199.498 242.53C200.413 242.86 201.221 242.661 201.229 242.379Z" fill="#AF851C"/>
<path d="M386.682 372.716C388.626 377.615 389.165 382.927 389.384 388.149C389.588 393.006 390.399 397.788 387.748 402.257C386.11 405.02 382.34 404.82 379.423 404.595C373.164 404.113 366.905 403.631 360.646 403.149C351.171 402.419 341.661 401.684 332.371 399.678C328.979 398.945 325.624 398.045 322.321 396.981C320.98 396.549 319.578 396.043 318.676 394.961C316.235 392.035 320.436 388.412 322.471 386.754C336.221 375.551 350.356 364.817 364.843 354.578C366.36 353.506 368.012 352.396 369.871 352.398C371.774 352.401 373.466 353.579 374.87 354.861C379.479 359.068 383.499 365.467 386.021 371.142C386.251 371.663 386.472 372.187 386.682 372.716Z" fill="#DDA928"/>
<path d="M387.748 402.258C390.398 397.788 389.587 393.007 389.384 388.149C389.164 382.926 388.625 377.615 386.682 372.716C386.472 372.188 386.251 371.664 386.021 371.144C383.5 365.468 379.479 359.069 374.87 354.863C373.466 353.581 371.774 352.404 369.871 352.4C368.012 352.398 366.36 353.508 364.843 354.58C364.699 354.682 364.558 354.786 364.414 354.888C364.012 356.996 364.621 359.32 366.632 360.126C367.518 360.481 368.542 360.797 368.976 361.646C369.219 362.12 369.223 362.676 369.264 363.207C369.48 365.957 371.529 367.421 372.148 369.804C372.39 370.734 371.742 371.677 372.08 372.642C372.47 373.753 373.727 374.287 374.317 375.273C375.598 377.416 373.406 380.306 374.403 382.596C375.301 384.657 376.619 385.102 376.463 387.557C376.31 389.957 375.801 392.223 377.005 394.479C377.391 395.203 377.94 395.909 377.917 396.729C377.891 397.683 377.11 398.417 376.606 399.229C375.656 400.754 375.722 402.664 376.391 404.363C377.401 404.44 378.412 404.519 379.423 404.596C382.34 404.82 386.11 405.021 387.748 402.258Z" fill="#AF851C"/>
<path d="M363.523 376.159C365.228 373.689 365.416 371.541 363.764 368.937C362.402 366.79 360.046 365.26 357.496 365.357C356.641 365.39 355.769 365.604 355.084 366.116C354.399 366.628 353.93 367.473 354.013 368.322C354.095 369.173 354.815 369.96 355.67 369.986C356.562 370.013 357.569 369.305 358.287 370.099C357.467 370.472 356.546 370.644 355.762 371.143C355.033 371.607 354.419 372.327 354.29 373.18C354.162 374.034 354.631 374.999 355.458 375.251C356.503 375.572 357.553 374.707 358.095 373.76C358.256 373.478 358.405 373.172 358.671 372.987C358.937 372.801 359.368 372.801 359.534 373.079C359.605 373.779 359.226 374.436 358.855 375.033C358.483 375.629 358.091 376.274 358.132 376.975C358.298 379.857 362.792 377.217 363.523 376.159Z" fill="white"/>
<path d="M326.998 386.59C325.237 387.612 324.498 388.874 324.756 390.947C324.968 392.657 325.969 394.274 327.56 394.951C328.093 395.178 328.69 395.298 329.259 395.182C329.827 395.065 330.359 394.684 330.555 394.139C330.751 393.594 330.539 392.904 330.022 392.641C329.483 392.367 328.66 392.51 328.45 391.816C329.062 391.824 329.675 391.984 330.301 391.905C330.883 391.831 331.467 391.567 331.794 391.08C332.121 390.594 332.113 389.867 331.679 389.474C331.131 388.976 330.237 389.203 329.63 389.627C329.449 389.754 329.269 389.898 329.053 389.935C328.836 389.972 328.572 389.847 328.551 389.629C328.71 389.18 329.132 388.886 329.533 388.628C329.934 388.369 330.362 388.088 330.54 387.646C331.272 385.832 327.752 386.153 326.998 386.59Z" fill="white"/>
<path d="M348.516 378.226C347.622 377.161 347.195 375.721 347.363 374.341C347.531 372.962 348.291 371.666 349.414 370.845C350.322 371.901 350.776 373.332 350.641 374.716C350.506 376.099 349.786 377.417 348.692 378.28" fill="#62AB50"/>
<path d="M364.629 385.31C362.096 387.609 359.563 389.904 357.091 392.265C358.896 394.771 362.116 396.228 365.196 395.842C368.568 395.419 371.561 392.819 372.445 389.543C372.924 387.765 372.781 385.782 372.065 384.085C371.908 383.713 370.595 381.753 369.568 380.713C367.941 382.265 366.295 383.799 364.629 385.31Z" fill="#B52922"/>
<path d="M368.569 381.642C368.46 381.746 368.348 381.847 368.239 381.95C370.194 384.454 370.559 387.843 368.583 390.712C366.145 394.249 361.041 394.04 358.605 390.849C358.488 390.959 358.369 391.068 358.252 391.179C360.637 394.354 365.187 394.581 368.189 391.877C371.304 389.071 370.881 384.651 368.569 381.642Z" fill="#A0221F"/>
<path d="M362.899 391.805C363.023 391.31 363.099 389.241 362.091 389.603C361.233 389.912 362.025 391.466 362.303 391.898C362.384 392.023 362.509 392.158 362.655 392.13C362.796 392.103 362.864 391.944 362.899 391.805Z" fill="#CC3A37"/>
<path d="M366.581 389.715C366.433 389.227 365.435 387.411 364.756 388.238C364.178 388.942 365.657 389.871 366.118 390.1C366.252 390.167 366.428 390.218 366.54 390.119C366.645 390.023 366.623 389.852 366.581 389.715Z" fill="#CC3A37"/>
<path d="M368.746 386.359C368.395 385.989 366.686 384.813 366.451 385.855C366.251 386.743 367.991 386.911 368.505 386.91C368.654 386.909 368.834 386.877 368.89 386.738C368.942 386.606 368.845 386.462 368.746 386.359Z" fill="#CC3A37"/>
<path d="M359.549 381.448C359.789 382.525 359.871 384.395 359.198 385.339C358.715 386.016 357.99 386.565 357.253 386.939C357.072 387.03 354.861 387.717 354.871 387.546C354.967 385.91 354.825 384.476 355.987 383.195C356.459 382.675 357.036 382.252 357.67 381.952C358.2 381.702 358.958 381.411 359.549 381.448Z" fill="#62AB50"/>
<path d="M350.399 386.741C350.367 386.572 350.335 386.401 350.303 386.228C350.079 385.03 349.694 384.04 348.705 383.253C347.665 382.425 346.431 381.797 345.114 381.566C342.265 381.067 339.575 381.436 337.631 383.774C335.981 385.76 335.326 388.591 336.162 391.06C336.894 393.218 338.734 394.969 340.929 395.594C342.323 395.991 343.831 395.979 345.244 395.692C346.553 395.425 347.347 395.119 348.223 394.159C349.16 393.132 349.983 392.207 350.401 390.842C350.839 389.417 350.654 388.127 350.399 386.741Z" fill="#B52922"/>
<path d="M353.007 399.678C351.53 400.112 349.312 400.061 348.039 399.066C347.922 398.974 347.801 398.848 347.82 398.7C347.833 398.591 347.92 398.507 348.001 398.432C348.895 397.615 349.827 397.078 351.085 397.084C352.305 397.089 353.478 397.551 354.561 398.111C354.584 398.508 354.37 398.892 354.069 399.153C353.768 399.413 353.388 399.565 353.007 399.678Z" fill="#62AB50"/>
<path d="M371.263 400.351C370.648 400.757 369.898 401.033 369.157 401.024C368.934 401.022 367.304 400.808 367.317 400.783C367.623 400.175 367.687 399.494 368.014 398.914C368.332 398.353 368.799 397.858 369.332 397.496C370.448 396.738 371.922 396.533 373.203 396.957C373.134 398.307 372.392 399.605 371.263 400.351Z" fill="#62AB50"/>
<path d="M341.688 385.13C343.437 385.13 343.437 382.424 341.688 382.424C339.939 382.424 339.939 385.13 341.688 385.13Z" fill="#A0221F"/>
<path d="M346.696 386.573C347.862 386.573 347.862 384.769 346.696 384.769C345.53 384.769 345.53 386.573 346.696 386.573Z" fill="#CC3A37"/>
<path d="M337.938 390.012C339.687 390.012 339.687 387.306 337.938 387.306C336.189 387.306 336.19 390.012 337.938 390.012Z" fill="#A0221F"/>
<path d="M342.818 388.596C343.984 388.596 343.984 386.792 342.818 386.792C341.652 386.792 341.652 388.596 342.818 388.596Z" fill="#CC3A37"/>
<path d="M340.537 392.867C341.703 392.867 341.703 391.063 340.537 391.063C339.371 391.063 339.372 392.867 340.537 392.867Z" fill="#A0221F"/>
<path d="M345.17 393.369C346.336 393.369 346.336 391.565 345.17 391.565C344.004 391.565 344.005 393.369 345.17 393.369Z" fill="#CC3A37"/>
<path d="M347.817 390.914C349.566 390.914 349.566 388.208 347.817 388.208C346.069 388.208 346.069 390.914 347.817 390.914Z" fill="#A0221F"/>
<path d="M485.844 257.449C484.669 256.162 483.548 254.831 482.473 253.467C483.547 251.43 484.159 249.159 484.269 246.862C484.325 245.691 484.256 244.513 484.059 243.358C483.952 242.734 483.716 240.515 483.139 240.166C480.906 238.813 480.309 245.658 480.323 246.634C480.351 248.496 480.774 250.326 481.417 252.08C479.518 249.545 477.783 246.895 476.239 244.143C479.104 240.035 480.193 234.73 479.147 229.834C478.983 229.065 478.546 227.678 477.515 227.893C476.894 228.023 476.225 229.343 475.95 229.845C475.145 231.314 474.777 232.993 474.634 234.649C474.404 237.313 474.728 240.079 475.453 242.682C473.778 239.528 472.339 236.253 471.15 232.884C473.827 229.734 476.087 226.336 476.47 222.117C476.565 221.059 477.071 216.667 475.512 216.356C475.068 216.267 474.656 216.601 474.351 216.935C472.557 218.894 471.594 222.136 471.073 224.691C470.575 227.131 470.51 229.658 470.883 232.12C470.119 229.876 469.465 227.593 468.927 225.277C470.211 220.141 469.593 214.544 467.184 209.824C466.8 209.072 466.182 208.236 465.34 208.319C464.34 208.417 463.977 209.677 463.924 210.679C463.651 215.817 465.116 221.028 468.015 225.283C468.362 226.787 468.756 228.278 469.195 229.755C467.227 226.109 463.928 223.184 460.043 221.714C459.308 221.436 458.402 221.234 457.798 221.736C457.393 222.074 457.255 222.657 457.339 223.178C457.423 223.7 457.697 224.17 457.997 224.604C459.328 226.529 461.263 227.975 463.346 229.046C465.375 230.089 467.554 230.801 469.728 231.501C470.679 234.422 471.82 237.274 473.129 240.048C470.397 236.472 466.605 233.707 462.348 232.226C461.838 232.049 461.273 231.89 460.77 232.086C460.077 232.354 459.782 233.231 459.947 233.954C460.113 234.676 460.624 235.268 461.156 235.786C464.44 238.992 469.028 240.554 473.608 241.038C475.22 244.327 477.082 247.494 479.179 250.514L479.139 250.477C476.912 247.968 473.966 246.119 470.76 245.129C469.797 244.832 466.79 243.769 465.857 244.329C464.054 245.413 466.224 247.438 467.247 248.24C470.544 250.825 475.376 250.822 479.384 250.813C481.162 253.347 483.099 255.782 485.202 258.087C485.598 258.518 486.236 257.877 485.844 257.449Z" fill="#AF851C"/>
<path d="M451.337 343.982C451.073 343.305 450.807 342.616 450.752 341.891C450.697 341.165 450.884 340.388 451.411 339.887C451.901 339.422 452.598 339.26 453.259 339.117C454.285 338.895 455.312 338.672 456.34 338.45C456.96 338.316 457.608 338.182 458.224 338.335C460.193 338.822 460.515 341.595 460.634 343.248" fill="#DDA928"/>
<path d="M419.806 352.43C419.105 351.097 419.293 349.35 420.264 348.198C421.235 347.046 422.928 346.56 424.363 347.021C425.799 347.482 426.89 348.862 427.005 350.362" fill="#DDA928"/>
<path d="M473.503 353.697C471.976 349.429 470.464 344.584 466.257 342.184C463.027 340.341 459.022 340.786 455.352 341.402C451.678 342.018 448.028 342.755 444.399 343.589L444.393 343.565C442.344 344.046 440.301 344.558 438.266 345.097C436.23 345.631 434.2 346.192 432.179 346.783L432.185 346.807C428.616 347.87 425.077 349.027 421.578 350.302C418.083 351.574 414.379 353.161 412.482 356.355C410.011 360.515 411.094 365.473 411.879 369.936C412.723 374.737 413.669 379.511 415.263 384.128C416.501 387.709 417.12 392.262 420.615 394.506C423.898 396.614 428.814 395.97 432.405 395.372C438.51 394.356 444.537 392.962 450.491 391.289C456.498 389.81 462.429 388.053 468.24 385.929C471.658 384.68 476.252 382.817 478.062 379.367C479.992 375.693 478.277 371.429 477.581 367.705C476.685 362.905 475.143 358.287 473.503 353.697Z" fill="#B52922"/>
<path d="M456.176 385.852C463.796 385.852 469.974 379.688 469.974 372.084C469.974 364.48 463.796 358.316 456.176 358.316C448.555 358.316 442.377 364.48 442.377 372.084C442.377 379.688 448.555 385.852 456.176 385.852Z" fill="#841D1A"/>
<path d="M433.939 385.815C433.256 385.626 432.597 385.863 431.945 386.049C431.799 386.09 430.594 386.384 429.836 386.589C429.075 386.785 427.881 387.123 427.735 387.159C427.076 387.319 426.386 387.438 425.885 387.939C425.161 388.663 425.371 389.862 425.632 390.852C425.825 391.582 426.109 392.415 426.821 392.67C427.232 392.816 427.687 392.723 428.114 392.628C428.942 392.445 429.773 392.237 430.606 392.023L430.607 392.025C430.816 391.972 431.024 391.914 431.233 391.86C431.441 391.805 431.65 391.752 431.859 391.696L431.858 391.694C432.688 391.47 433.514 391.24 434.325 390.992C434.743 390.864 435.184 390.721 435.47 390.391C435.963 389.82 435.798 388.954 435.603 388.225C435.339 387.235 434.928 386.089 433.939 385.815Z" fill="#841D1A"/>
<path d="M456.176 381.763C461.533 381.763 465.876 377.429 465.876 372.084C465.876 366.739 461.533 362.406 456.176 362.406C450.819 362.406 446.476 366.739 446.476 372.084C446.476 377.429 450.819 381.763 456.176 381.763Z" fill="#F7B92F"/>
<path opacity="0.44" d="M448.562 378.078C452.455 373.125 456.44 368.245 460.509 363.436C459.67 363.017 458.771 362.719 457.835 362.556C454.21 366.865 450.655 371.233 447.166 375.655C447.519 376.543 447.99 377.356 448.562 378.078Z" fill="white"/>
<path opacity="0.44" d="M463.246 365.455C459.127 370.35 455.095 375.317 451.153 380.356C452.48 381.158 453.996 381.642 455.58 381.74C458.832 377.611 462.145 373.532 465.519 369.503C465.085 367.937 464.292 366.564 463.246 365.455Z" fill="white"/>
<path d="M472.924 352.071C471.555 348.253 469.937 344.284 466.257 342.184C463.027 340.341 459.022 340.786 455.352 341.402C451.678 342.018 448.028 342.755 444.399 343.589L444.393 343.565C442.344 344.046 440.301 344.558 438.266 345.097C436.23 345.631 434.2 346.192 432.179 346.783L432.185 346.807C428.616 347.87 425.077 349.027 421.578 350.302C418.083 351.574 414.379 353.161 412.482 356.355C410.412 359.841 410.837 363.886 411.491 367.732C431.357 360.425 451.979 355.171 472.924 352.071Z" fill="#841D1A"/>
<path d="M411.416 358.877C430.097 352.457 449.248 347.516 468.694 344.119C468.189 343.581 467.629 343.091 467.003 342.658C448.437 345.972 430.141 350.675 412.271 356.741C411.9 357.434 411.618 358.148 411.416 358.877Z" fill="#F7B92F"/>
<path d="M411.044 364.423C430.78 357.535 451.049 352.308 471.642 348.804C471.396 348.251 471.136 347.706 470.851 347.178C450.502 350.667 430.47 355.828 410.955 362.614C410.957 363.215 410.991 363.818 411.044 364.423Z" fill="#F7B92F"/>
<path d="M437.399 67.8583C437.399 67.4362 436.236 67.0844 434.673 66.9861C434.578 65.3201 434.223 64.0771 433.795 64.0771C433.368 64.0771 433.012 65.3201 432.918 66.9861C431.355 67.0844 430.192 67.4362 430.192 67.8583C430.192 68.2805 431.355 68.6322 432.918 68.7306C433.012 70.3966 433.368 71.6395 433.795 71.6395C434.223 71.6395 434.579 70.3966 434.673 68.7306C436.237 68.6322 437.399 68.2805 437.399 67.8583Z" fill="#F2D394"/>
<path d="M492.329 215.026C492.329 214.604 491.167 214.252 489.604 214.154C489.509 212.488 489.154 211.245 488.726 211.245C488.298 211.245 487.942 212.488 487.848 214.154C486.285 214.252 485.123 214.604 485.123 215.026C485.123 215.448 486.285 215.8 487.848 215.898C487.943 217.564 488.298 218.807 488.726 218.807C489.154 218.807 489.51 217.564 489.604 215.898C491.167 215.8 492.329 215.448 492.329 215.026Z" fill="#F2D394"/>
<path d="M365.307 186.836C365.307 186.414 364.144 186.062 362.581 185.964C362.486 184.298 362.131 183.055 361.703 183.055C361.276 183.055 360.919 184.298 360.825 185.964C359.262 186.062 358.1 186.414 358.1 186.836C358.1 187.258 359.262 187.61 360.825 187.708C360.92 189.374 361.276 190.617 361.703 190.617C362.131 190.617 362.487 189.374 362.581 187.708C364.145 187.609 365.307 187.258 365.307 186.836Z" fill="#F2D394"/>
<path d="M193.125 274.719C193.125 274.297 191.963 273.945 190.4 273.847C190.305 272.181 189.95 270.938 189.522 270.938C189.094 270.938 188.738 272.181 188.644 273.847C187.081 273.945 185.919 274.297 185.919 274.719C185.919 275.141 187.081 275.493 188.644 275.591C188.739 277.257 189.094 278.5 189.522 278.5C189.95 278.5 190.306 277.257 190.4 275.591C191.963 275.493 193.125 275.141 193.125 274.719Z" fill="#F2D394"/>
<path d="M228.423 186.836C228.423 186.414 227.26 186.062 225.697 185.964C225.602 184.298 225.247 183.055 224.82 183.055C224.392 183.055 224.036 184.298 223.942 185.964C222.379 186.062 221.216 186.414 221.216 186.836C221.216 187.258 222.379 187.61 223.942 187.708C224.037 189.374 224.392 190.617 224.82 190.617C225.247 190.617 225.603 189.374 225.697 187.708C227.261 187.609 228.423 187.258 228.423 186.836Z" fill="#F2D394"/>
<path d="M314.825 89.7309C314.825 89.3087 313.663 88.957 312.1 88.8587C312.005 87.1927 311.65 85.9497 311.222 85.9497C310.794 85.9497 310.438 87.1927 310.344 88.8587C308.781 88.957 307.619 89.3087 307.619 89.7309C307.619 90.153 308.781 90.5048 310.344 90.6031C310.439 92.2691 310.794 93.5121 311.222 93.5121C311.65 93.5121 312.006 92.2691 312.1 90.6031C313.663 90.5048 314.825 90.153 314.825 89.7309Z" fill="#F2D394"/>
<path d="M263.062 76.7719C263.062 76.3498 261.9 75.998 260.337 75.8997C260.242 74.2337 259.887 72.9907 259.459 72.9907C259.031 72.9907 258.675 74.2337 258.581 75.8997C257.018 75.998 255.856 76.3498 255.856 76.7719C255.856 77.194 257.018 77.5458 258.581 77.6441C258.676 79.3101 259.031 80.5531 259.459 80.5531C259.887 80.5531 260.243 79.3101 260.337 77.6441C261.901 77.5458 263.062 77.194 263.062 76.7719Z" fill="#F2D394"/>
<path d="M284.958 140.402C284.958 139.98 283.796 139.628 282.233 139.53C282.138 137.864 281.782 136.621 281.355 136.621C280.927 136.621 280.571 137.864 280.477 139.53C278.914 139.628 277.751 139.98 277.751 140.402C277.751 140.824 278.914 141.176 280.477 141.274C280.572 142.94 280.927 144.183 281.355 144.183C281.782 144.183 282.139 142.94 282.233 141.274C283.796 141.175 284.958 140.824 284.958 140.402Z" fill="#F2D394"/>
<path d="M473.853 320.147C473.853 319.725 472.69 319.373 471.127 319.275C471.032 317.609 470.677 316.366 470.249 316.366C469.822 316.366 469.465 317.609 469.371 319.275C467.808 319.373 466.646 319.725 466.646 320.147C466.646 320.57 467.808 320.921 469.371 321.02C469.466 322.686 469.822 323.929 470.249 323.929C470.677 323.929 471.033 322.686 471.127 321.02C472.69 320.921 473.853 320.57 473.853 320.147Z" fill="#F2D394"/>
<path d="M542.968 279.564C542.968 279.142 541.805 278.79 540.242 278.692C540.147 277.026 539.792 275.783 539.365 275.783C538.937 275.783 538.581 277.026 538.487 278.692C536.924 278.79 535.761 279.142 535.761 279.564C535.761 279.986 536.924 280.338 538.487 280.436C538.582 282.102 538.937 283.345 539.365 283.345C539.792 283.345 540.148 282.102 540.242 280.436C541.805 280.338 542.968 279.986 542.968 279.564Z" fill="#F2D394"/>
<path d="M476.79 121.436C476.79 121.014 475.627 120.662 474.064 120.564C473.969 118.898 473.614 117.655 473.186 117.655C472.759 117.655 472.403 118.898 472.308 120.564C470.745 120.662 469.583 121.014 469.583 121.436C469.583 121.858 470.745 122.21 472.308 122.308C472.403 123.974 472.759 125.217 473.186 125.217C473.614 125.217 473.97 123.974 474.064 122.308C475.628 122.21 476.79 121.858 476.79 121.436Z" fill="#F2D394"/>
<path d="M407.714 389.288C407.714 388.865 406.552 388.514 404.989 388.415C404.894 386.749 404.538 385.506 404.111 385.506C403.683 385.506 403.327 386.749 403.233 388.415C401.67 388.514 400.507 388.865 400.507 389.288C400.507 389.71 401.67 390.061 403.233 390.16C403.328 391.826 403.683 393.069 404.111 393.069C404.538 393.069 404.894 391.826 404.989 390.16C406.552 390.061 407.714 389.71 407.714 389.288Z" fill="#F2D394"/>
<path d="M549.563 188.332C549.551 187.941 546.732 187.708 542.999 187.756C545.293 184.574 546.813 182.007 546.51 181.768C546.222 181.542 544.389 183.476 542.152 186.308C542.063 182.408 541.756 179.524 541.389 179.524C541.005 179.524 540.685 182.701 540.616 186.9C537.453 184.27 534.89 182.491 534.642 182.793C534.402 183.086 536.429 185.25 539.364 187.885C535.822 188.091 533.204 188.494 533.215 188.872C533.228 189.263 536.047 189.496 539.78 189.448C537.486 192.63 535.965 195.197 536.269 195.436C536.557 195.663 538.39 193.729 540.627 190.896C540.716 194.797 541.022 197.68 541.389 197.68C541.775 197.68 542.094 194.503 542.163 190.305C545.325 192.934 547.889 194.714 548.137 194.411C548.377 194.117 546.35 191.954 543.415 189.319C546.957 189.113 549.575 188.71 549.563 188.332Z" fill="#F2D394"/>
<path d="M275.323 279.194C275.311 278.804 272.492 278.57 268.758 278.619C271.053 275.437 272.573 272.869 272.27 272.63C271.982 272.404 270.149 274.338 267.911 277.17C267.823 273.27 267.516 270.386 267.149 270.386C266.765 270.386 266.445 273.563 266.375 277.762C263.213 275.133 260.65 273.353 260.402 273.655C260.161 273.948 262.189 276.112 265.123 278.748C261.582 278.953 258.964 279.357 258.975 279.735C258.988 280.125 261.807 280.359 265.54 280.31C263.246 283.492 261.725 286.059 262.029 286.298C262.317 286.525 264.15 284.591 266.387 281.759C266.476 285.659 266.782 288.543 267.149 288.543C267.534 288.543 267.854 285.366 267.923 281.167C271.085 283.796 273.649 285.576 273.897 285.274C274.137 284.98 272.11 282.817 269.175 280.181C272.717 279.975 275.335 279.572 275.323 279.194Z" fill="#F2D394"/>
<path d="M343.612 252.599C343.6 252.208 340.781 251.974 337.047 252.023C339.342 248.841 340.862 246.274 340.559 246.035C340.271 245.808 338.438 247.742 336.2 250.574C336.112 246.674 335.805 243.791 335.438 243.791C335.054 243.791 334.734 246.967 334.665 251.166C331.502 248.537 328.939 246.757 328.691 247.059C328.45 247.353 330.478 249.516 333.412 252.152C329.871 252.358 327.253 252.761 327.264 253.139C327.277 253.529 330.096 253.763 333.829 253.714C331.535 256.897 330.014 259.464 330.318 259.703C330.606 259.929 332.439 257.995 334.676 255.163C334.765 259.063 335.071 261.947 335.438 261.947C335.823 261.947 336.143 258.77 336.212 254.571C339.374 257.201 341.938 258.98 342.186 258.678C342.426 258.384 340.399 256.221 337.464 253.585C341.006 253.38 343.624 252.977 343.612 252.599Z" fill="#F2D394"/>
<path d="M379.42 46.4682C379.407 46.0776 376.588 45.844 372.855 45.8927C375.149 42.7105 376.67 40.1434 376.366 39.9043C376.079 39.6779 374.245 41.6118 372.008 44.4441C371.919 40.5439 371.613 37.6602 371.246 37.6602C370.862 37.6602 370.542 40.837 370.472 45.0358C367.31 42.4065 364.746 40.6268 364.498 40.929C364.258 41.2222 366.286 43.3861 369.22 46.0217C365.678 46.2274 363.06 46.6305 363.072 47.0085C363.084 47.399 365.903 47.6327 369.637 47.584C367.342 50.7662 365.822 53.3333 366.126 53.5723C366.413 53.7987 368.246 51.8649 370.484 49.0326C370.572 52.9328 370.879 55.8165 371.246 55.8165C371.631 55.8165 371.95 52.6397 372.02 48.4409C375.182 51.0702 377.746 52.8498 377.993 52.5477C378.234 52.2545 376.206 50.0906 373.272 47.455C376.814 47.2493 379.432 46.8461 379.42 46.4682Z" fill="#F2D394"/>
<path d="M503.96 100.73C503.948 100.339 501.129 100.106 497.395 100.154C499.69 96.9722 501.21 94.4051 500.907 94.1661C500.619 93.9396 498.786 95.8735 496.548 98.7058C496.46 94.8056 496.153 91.9219 495.786 91.9219C495.402 91.9219 495.082 95.0987 495.012 99.2975C491.85 96.6682 489.287 94.8886 489.039 95.1907C488.798 95.4839 490.826 97.6478 493.76 100.283C490.219 100.489 487.601 100.892 487.612 101.27C487.625 101.661 490.444 101.894 494.177 101.846C491.883 105.028 490.362 107.595 490.666 107.834C490.954 108.06 492.787 106.127 495.024 103.294C495.113 107.195 495.419 110.078 495.786 110.078C496.171 110.078 496.491 106.901 496.56 102.703C499.722 105.332 502.286 107.112 502.534 106.809C502.774 106.516 500.747 104.352 497.812 101.717C501.354 101.512 503.972 101.108 503.96 100.73Z" fill="#F2D394"/>
<path d="M332.719 362.761C332.706 362.37 329.888 362.136 326.154 362.185C328.449 359.003 329.969 356.436 329.665 356.197C329.378 355.97 327.545 357.904 325.307 360.737C325.219 356.836 324.912 353.953 324.545 353.953C324.161 353.953 323.841 357.129 323.771 361.328C320.609 358.699 318.045 356.919 317.798 357.221C317.557 357.515 319.585 359.679 322.519 362.314C318.977 362.52 316.359 362.923 316.371 363.301C316.384 363.692 319.203 363.925 322.936 363.876C320.642 367.059 319.121 369.626 319.425 369.865C319.712 370.091 321.546 368.157 323.783 365.325C323.872 369.225 324.178 372.109 324.545 372.109C324.93 372.109 325.249 368.932 325.319 364.733C328.481 367.363 331.045 369.142 331.293 368.84C331.533 368.546 329.505 366.383 326.571 363.747C330.113 363.542 332.731 363.139 332.719 362.761Z" fill="#F2D394"/>
<path d="M448.893 89.7318C449.915 89.7318 450.744 88.9052 450.744 87.8855C450.744 86.8657 449.915 86.0391 448.893 86.0391C447.871 86.0391 447.043 86.8657 447.043 87.8855C447.043 88.9052 447.871 89.7318 448.893 89.7318Z" fill="#F2D394"/>
<path d="M450.743 57.746C451.765 57.746 452.593 56.9194 452.593 55.8996C452.593 54.8799 451.765 54.0532 450.743 54.0532C449.721 54.0532 448.892 54.8799 448.892 55.8996C448.892 56.9194 449.721 57.746 450.743 57.746Z" fill="#F2D394"/>
<path d="M445.254 123.312C446.276 123.312 447.105 122.486 447.105 121.466C447.105 120.446 446.276 119.62 445.254 119.62C444.232 119.62 443.404 120.446 443.404 121.466C443.404 122.486 444.232 123.312 445.254 123.312Z" fill="#F2D394"/>
<path d="M444.725 232.004C445.747 232.004 446.575 231.178 446.575 230.158C446.575 229.138 445.747 228.312 444.725 228.312C443.703 228.312 442.874 229.138 442.874 230.158C442.874 231.178 443.703 232.004 444.725 232.004Z" fill="#F2D394"/>
<path d="M394.377 236.914C395.399 236.914 396.228 236.087 396.228 235.068C396.228 234.048 395.399 233.221 394.377 233.221C393.355 233.221 392.527 234.048 392.527 235.068C392.527 236.087 393.355 236.914 394.377 236.914Z" fill="#F2D394"/>
<path d="M379.42 127.933C380.442 127.933 381.27 127.106 381.27 126.086C381.27 125.066 380.442 124.24 379.42 124.24C378.398 124.24 377.569 125.066 377.569 126.086C377.569 127.106 378.398 127.933 379.42 127.933Z" fill="#F2D394"/>
<path d="M496.673 251.035C497.695 251.035 498.524 250.208 498.524 249.188C498.524 248.168 497.695 247.342 496.673 247.342C495.651 247.342 494.823 248.168 494.823 249.188C494.823 250.208 495.651 251.035 496.673 251.035Z" fill="#F2D394"/>
<path d="M511.25 341.175C512.272 341.175 513.101 340.349 513.101 339.329C513.101 338.309 512.272 337.482 511.25 337.482C510.228 337.482 509.4 338.309 509.4 339.329C509.4 340.349 510.228 341.175 511.25 341.175Z" fill="#F2D394"/>
<path d="M491.048 361.31C492.07 361.31 492.899 360.484 492.899 359.464C492.899 358.444 492.07 357.618 491.048 357.618C490.026 357.618 489.198 358.444 489.198 359.464C489.198 360.484 490.026 361.31 491.048 361.31Z" fill="#F2D394"/>
<path d="M397.718 356.9C398.74 356.9 399.568 356.073 399.568 355.053C399.568 354.034 398.74 353.207 397.718 353.207C396.696 353.207 395.867 354.034 395.867 355.053C395.867 356.073 396.696 356.9 397.718 356.9Z" fill="#F2D394"/>
<path d="M212.999 280.29C214.021 280.29 214.849 279.463 214.849 278.444C214.849 277.424 214.021 276.597 212.999 276.597C211.977 276.597 211.148 277.424 211.148 278.444C211.148 279.463 211.977 280.29 212.999 280.29Z" fill="#F2D394"/>
<path d="M245.907 229.833C246.929 229.833 247.758 229.006 247.758 227.987C247.758 226.967 246.929 226.14 245.907 226.14C244.885 226.14 244.057 226.967 244.057 227.987C244.057 229.006 244.885 229.833 245.907 229.833Z" fill="#F2D394"/>
<path d="M198.226 140.396C199.248 140.396 200.076 139.569 200.076 138.55C200.076 137.53 199.248 136.703 198.226 136.703C197.204 136.703 196.375 137.53 196.375 138.55C196.375 139.569 197.204 140.396 198.226 140.396Z" fill="#F2D394"/>
<path d="M347.386 80.1405C348.408 80.1405 349.237 79.3139 349.237 78.2941C349.237 77.2744 348.408 76.4478 347.386 76.4478C346.364 76.4478 345.536 77.2744 345.536 78.2941C345.536 79.3139 346.364 80.1405 347.386 80.1405Z" fill="#F2D394"/>
<path d="M409.551 44.8959C410.573 44.8959 411.401 44.0693 411.401 43.0495C411.401 42.0298 410.573 41.2031 409.551 41.2031C408.529 41.2031 407.701 42.0298 407.701 43.0495C407.701 44.0693 408.529 44.8959 409.551 44.8959Z" fill="#F2D394"/>
<path d="M284.825 71.0746C285.847 71.0746 286.676 70.248 286.676 69.2282C286.676 68.2085 285.847 67.3818 284.825 67.3818C283.803 67.3818 282.975 68.2085 282.975 69.2282C282.975 70.248 283.803 71.0746 284.825 71.0746Z" fill="#F2D394"/>
<path d="M188.524 190.759C189.546 190.759 190.374 189.933 190.374 188.913C190.374 187.893 189.546 187.066 188.524 187.066C187.502 187.066 186.673 187.893 186.673 188.913C186.673 189.933 187.502 190.759 188.524 190.759Z" fill="#F2D394"/>
<path d="M276.51 217.559C277.532 217.559 278.361 216.732 278.361 215.712C278.361 214.692 277.532 213.866 276.51 213.866C275.488 213.866 274.66 214.692 274.66 215.712C274.66 216.732 275.488 217.559 276.51 217.559Z" fill="#F2D394"/>
<path d="M502.881 354.457C501.364 352.895 499.947 351.252 498.626 349.543C499.957 346.87 500.528 343.824 500.239 340.852C500.203 340.475 500.15 340.09 499.969 339.757C499.789 339.424 499.455 339.15 499.076 339.142C498.437 339.128 498.029 339.807 497.805 340.405C496.848 342.955 496.705 345.878 497.746 348.377C495.753 345.659 494.006 342.778 492.522 339.764C494.588 337.608 495.877 334.719 496.057 331.739C496.086 331.267 496.085 330.776 495.886 330.347C495.686 329.919 495.238 329.573 494.768 329.633C494.293 329.693 493.962 330.123 493.71 330.53C492.284 332.829 491.633 335.583 491.819 338.278C491.114 336.741 490.474 335.174 489.907 333.577C489.878 330.277 489.55 326.946 488.215 323.943C488.003 323.464 487.753 322.981 487.345 322.652C486.936 322.322 486.33 322.185 485.879 322.454C485.327 322.782 485.228 323.528 485.228 324.17C485.233 327.944 486.716 331.685 489.268 334.469C490.229 337.085 491.377 339.626 492.697 342.075C490.87 339.576 488.31 337.608 485.397 336.543C485.033 336.411 484.654 336.29 484.268 336.312C483.881 336.335 483.483 336.53 483.32 336.881C483.037 337.491 483.564 338.155 484.066 338.604C486.846 341.091 490.192 342.938 493.775 343.985C495.053 346.155 496.47 348.247 498.023 350.242C495.549 348.424 492.841 346.924 489.981 345.803C489.6 345.654 489.199 345.509 488.793 345.556C488.387 345.603 487.98 345.905 487.958 346.313C487.936 346.702 488.249 347.02 488.545 347.273C491.503 349.803 495.28 351.358 499.164 351.657C500.143 352.838 501.166 353.987 502.24 355.094C502.648 355.512 503.286 354.875 502.881 354.457Z" fill="#F7B92F"/>
<path d="M198.83 182.163C200.574 180.367 202.204 178.477 203.724 176.511C202.192 173.437 201.536 169.933 201.868 166.515C201.91 166.082 201.971 165.639 202.178 165.256C202.385 164.873 202.769 164.558 203.206 164.548C203.942 164.533 204.41 165.313 204.668 166C205.769 168.933 205.933 172.296 204.735 175.17C207.029 172.045 209.037 168.73 210.744 165.264C208.369 162.783 206.886 159.461 206.677 156.034C206.645 155.492 206.646 154.927 206.875 154.434C207.105 153.942 207.62 153.543 208.16 153.612C208.707 153.683 209.087 154.175 209.377 154.643C211.017 157.288 211.766 160.455 211.552 163.555C212.362 161.787 213.098 159.985 213.752 158.148C213.785 154.353 214.162 150.52 215.697 147.067C215.942 146.516 216.229 145.961 216.699 145.582C217.169 145.203 217.866 145.046 218.385 145.355C219.019 145.732 219.134 146.59 219.133 147.328C219.128 151.669 217.423 155.973 214.488 159.174C213.381 162.184 212.062 165.107 210.543 167.923C212.644 165.048 215.589 162.784 218.94 161.56C219.358 161.407 219.794 161.269 220.239 161.294C220.684 161.32 221.142 161.544 221.328 161.947C221.654 162.649 221.047 163.413 220.47 163.929C217.273 166.791 213.424 168.913 209.303 170.118C207.832 172.614 206.204 175.02 204.417 177.315C207.262 175.224 210.377 173.499 213.667 172.21C214.104 172.038 214.566 171.872 215.034 171.926C215.501 171.98 215.968 172.328 215.995 172.796C216.019 173.243 215.659 173.61 215.318 173.901C211.916 176.81 207.572 178.599 203.105 178.943C201.979 180.302 200.803 181.623 199.567 182.896C199.098 183.377 198.363 182.643 198.83 182.163Z" fill="#CAA028"/>
<path d="M260.242 245.326L263.145 209.219C267.874 209.425 272.616 208.333 276.282 205.3C281.119 201.299 283.236 194.665 283.746 188.289C284.309 181.257 283.344 172.317 280.691 165.839C280.256 164.776 279.757 163.705 279.088 162.794C274.666 161.064 269.935 160.277 265.188 159.961C260.45 159.517 255.654 159.542 251.013 160.547C250.207 161.341 249.543 162.318 248.944 163.298C245.289 169.271 242.909 177.944 242.341 184.976C241.826 191.35 242.856 198.236 246.992 202.956C250.126 206.532 254.632 208.365 259.334 208.915L256.432 245.021C248.467 244.577 242.19 245.464 242.055 247.139C241.91 248.945 248.964 250.985 257.812 251.693C266.659 252.401 273.949 251.511 274.095 249.703C274.229 248.028 268.174 246.155 260.242 245.326Z" fill="#DEDBD4"/>
<path d="M272.078 175.637C263.763 173.044 255.231 173.588 247.276 176.632C245.04 183.481 244.979 191.857 248.554 198.19C251.229 202.928 256.283 205.05 261.652 205.226C266.98 205.906 272.309 204.616 275.707 200.363C280.209 194.728 281.507 186.542 280.444 179.466C277.828 177.864 275.032 176.558 272.078 175.637Z" fill="#B52922"/>
<path d="M247.276 176.632C247.213 176.825 247.158 177.023 247.099 177.219C249.655 180.331 255.75 182.845 263.027 183.428C270.734 184.044 277.483 182.313 280.247 179.35C277.687 177.802 274.958 176.536 272.078 175.638C263.763 173.043 255.231 173.588 247.276 176.632Z" fill="#911F1C"/>
<path d="M279.088 162.795C274.666 161.064 269.935 160.278 265.188 159.962C260.45 159.518 255.654 159.543 251.013 160.548C250.916 160.643 250.827 160.749 250.734 160.85C254.495 163.218 259.455 163.871 263.741 164.181C268.682 164.539 274.295 164.391 279.257 163.049C279.199 162.964 279.147 162.876 279.088 162.795Z" fill="#EFE9DF"/>
<path d="M316.953 51.9323C315.851 49.1081 316.552 45.7869 318.3 43.3092C320.049 40.8314 322.725 39.1248 325.559 38.0352C326.599 40.9116 326.201 44.2671 324.517 46.8215C322.833 49.376 319.901 51.0691 316.842 51.2531" fill="#62AB50"/>
<path d="M319.872 67.4501C321.325 64.9064 324.128 63.3487 327.004 62.7642C329.88 62.1788 332.856 62.4467 335.769 62.8021C334.317 65.3412 331.848 67.2814 329.033 68.0941C326.219 68.9068 323.092 68.5821 320.504 67.2092" fill="#62AB50"/>
<path d="M333.792 51.0137C334.673 48.1075 337.43 46.0753 340.353 45.2274C343.275 44.3795 346.38 44.5193 349.421 44.6663C349.489 46.8429 348.237 48.9319 346.469 50.2091C344.701 51.4864 342.481 52.024 340.3 52.0889C338.119 52.1538 335.95 51.775 333.807 51.3664" fill="#62AB50"/>
<path d="M346.957 60.6574C345.475 60.9009 343.94 61.1914 342.459 60.9018C340.756 60.5681 339.139 59.9159 337.573 59.1853C337.382 59.0969 335.554 57.5401 335.863 57.4372C337.121 57.0178 338.191 56.2475 339.483 55.8425C340.819 55.4231 342.218 55.2048 343.619 55.185C345.019 55.166 346.424 55.3446 347.772 55.7271C348.167 55.8389 351.5 56.9294 351.418 57.3705C351.237 58.3383 350.561 59.1646 349.732 59.6977C348.904 60.2298 347.931 60.4968 346.957 60.6574Z" fill="#62AB50"/>
<path d="M334.457 44.7992C333.063 46.5373 331.105 47.0091 329.144 47.9156C328.991 47.9859 328.808 48.0563 328.663 47.9706C328.527 47.8903 328.493 47.7135 328.477 47.5575C328.265 45.5117 328.887 43.8016 330.125 42.1996C331.544 40.3631 333.68 39.094 335.974 38.7251C336.344 40.8412 335.778 43.1034 334.457 44.7992Z" fill="#62AB50"/>
<path d="M300.49 84.3111C307.286 66.4876 323.277 52.9053 341.964 48.9717C342.649 48.8274 342.359 47.7846 341.676 47.9281C322.6 51.9429 306.372 65.8544 299.444 84.0234C299.194 84.6773 300.243 84.957 300.49 84.3111Z" fill="#498738"/>
<path d="M303.826 57.6122C302.329 63.1478 302.785 68.6581 304.672 74.0404C304.901 74.6952 305.949 74.4129 305.718 73.7526C303.893 68.5472 303.422 63.2606 304.872 57.9C305.055 57.2253 304.008 56.9394 303.826 57.6122Z" fill="#498738"/>
<path d="M310.314 67.9022C316.585 68.9927 322.878 68.4704 328.868 66.311C329.521 66.0756 329.24 65.0293 328.58 65.2674C322.782 67.3583 316.678 67.9157 310.602 66.8586C309.918 66.7395 309.626 67.7822 310.314 67.9022Z" fill="#498738"/>
<path d="M316.682 61.0937C315.908 55.08 317.899 49.1837 322.207 44.8973C322.702 44.404 321.935 43.6391 321.439 44.1316C316.951 48.5983 314.789 54.813 315.597 61.0937C315.686 61.7765 316.772 61.7855 316.682 61.0937Z" fill="#498738"/>
<path d="M327.691 54.3497C332.124 57.55 337.467 58.9544 342.905 58.3446C343.592 58.268 343.599 57.1846 342.905 57.2622C337.632 57.853 332.538 56.5181 328.239 53.4143C327.671 53.0057 327.131 53.9447 327.691 54.3497Z" fill="#498738"/>
<path d="M314.71 68.374C316.128 72.7433 319.556 76.0726 323.979 77.3525C324.653 77.5474 324.938 76.5029 324.268 76.3089C320.216 75.1363 317.057 72.0939 315.756 68.0863C315.541 67.4251 314.494 67.7075 314.71 68.374Z" fill="#498738"/>
<path d="M326.731 54.4218C327.595 49.6087 330.102 45.4803 333.97 42.4802C334.522 42.0527 333.749 41.2923 333.203 41.7144C329.208 44.8119 326.577 49.1649 325.684 54.1331C325.562 54.8169 326.608 55.1082 326.731 54.4218Z" fill="#498738"/>
<path d="M295.944 63.1288C297.52 66.892 300.258 69.9083 303.899 71.779C304.52 72.0983 305.069 71.1639 304.447 70.8446C301.075 69.1127 298.456 66.34 296.991 62.8411C296.725 62.207 295.674 62.4848 295.944 63.1288Z" fill="#498738"/>
<path d="M464.543 79.5141C463.634 79.432 462.757 79.0829 462.023 78.5444C461.536 78.1872 460.285 77.2798 460.683 76.5465C461.145 75.6941 463.095 76.7134 463.716 76.9109C463.305 75.9223 463.146 74.83 463.259 73.7656C463.312 73.2767 463.578 72.6697 464.068 72.7175C464.376 72.7473 464.585 73.0386 464.733 73.311C465.26 74.2843 465.552 75.3847 465.575 76.4915C465.717 75.4325 466.364 74.452 467.281 73.9018C467.592 73.7151 467.991 73.5771 468.31 73.7503C468.739 73.983 468.739 74.591 468.646 75.0681C468.291 76.8884 467.416 78.604 466.15 79.9615" fill="#AF851C"/>
<path d="M476.545 85.4691C475.121 80.4026 471.388 76.0279 466.123 76.7143C457.237 77.8725 459.956 92.0898 463.98 96.4898C465.408 98.052 467.417 99.1732 469.537 99.1849C476.495 99.2228 478.325 91.8048 476.545 85.4691Z" fill="#62AB50"/>
<g opacity="0.32">
<path d="M461.818 85.7963C461.743 87.7122 462.093 89.647 462.85 91.4104C463.365 92.6109 464.954 94.5006 466.457 93.3776C467.029 92.9501 467.178 92.1365 467.047 91.4356C466.916 90.7348 466.559 90.1007 466.286 89.4413C465.679 87.9729 465.49 86.3348 465.745 84.7671C465.903 83.7948 466.228 82.8251 466.102 81.8483C465.998 81.0518 465.224 79.7998 464.261 79.9063C462.232 80.1336 461.891 84.2142 461.822 85.6971C461.821 85.7305 461.819 85.7639 461.818 85.7963Z" fill="white"/>
</g>
<path d="M266.521 365.97C265.581 365.897 264.67 365.549 263.905 365.001C263.398 364.639 262.093 363.718 262.495 362.956C262.961 362.069 264.989 363.096 265.632 363.292C265.194 362.276 265.016 361.15 265.12 360.049C265.168 359.544 265.434 358.913 265.941 358.956C266.26 358.983 266.479 359.281 266.635 359.561C267.193 360.559 267.508 361.692 267.546 362.834C267.68 361.738 268.334 360.717 269.276 360.137C269.595 359.94 270.004 359.792 270.336 359.967C270.782 360.202 270.79 360.83 270.699 361.324C270.358 363.208 269.476 364.992 268.187 366.411" fill="#AF851C"/>
<path d="M279.088 370.672C276.667 365.802 272.035 362.077 266.824 363.783C258.027 366.662 263.524 380.572 268.457 384.267C270.208 385.578 272.462 386.332 274.615 385.937C281.686 384.642 282.114 376.761 279.088 370.672Z" fill="#6E8959"/>
<g opacity="0.17">
<path d="M274.661 367.557C273.438 366.243 271.028 364.302 269.109 365.112C267.546 365.773 268.434 367.517 269.274 368.453C269.796 369.035 270.443 369.49 271.043 369.991C272.388 371.113 273.518 372.49 274.366 374.021C274.967 375.105 275.438 377.759 277.277 377.224C277.844 377.059 278.21 376.478 278.292 375.896C278.374 375.312 278.226 374.723 278.062 374.158C277.373 371.757 276.363 369.387 274.661 367.557Z" fill="white"/>
</g>
<path d="M299.194 364.813C298.631 364.096 298.285 363.219 298.176 362.316C298.104 361.718 297.91 360.187 298.717 359.974C299.656 359.726 300.248 361.842 300.529 362.428C300.969 361.452 301.658 360.588 302.513 359.942C302.905 359.645 303.531 359.423 303.832 359.811C304.022 360.057 303.952 360.408 303.854 360.701C303.505 361.751 302.901 362.716 302.109 363.491C302.98 362.869 304.138 362.668 305.169 362.957C305.519 363.056 305.892 363.251 305.984 363.601C306.108 364.072 305.664 364.488 305.252 364.748C303.68 365.737 301.828 366.276 299.97 366.286" fill="#AF851C"/>
<path d="M305.317 376.561C306.77 371.502 305.893 365.824 301.05 363.652C292.876 359.985 287.714 373.512 288.825 379.364C289.221 381.441 290.34 383.448 292.138 384.568C298.042 388.243 303.501 382.886 305.317 376.561Z" fill="#6E8959"/>
<g opacity="0.17">
<path d="M303.936 371.335C303.773 369.549 303.054 366.545 301.038 366.016C299.397 365.586 299.031 367.508 299.123 368.761C299.18 369.54 299.413 370.294 299.582 371.057C299.96 372.766 300.012 374.544 299.746 376.273C299.557 377.498 298.306 379.886 300.087 380.583C300.637 380.798 301.283 380.562 301.705 380.151C302.127 379.739 302.37 379.182 302.588 378.634C303.511 376.313 304.163 373.822 303.936 371.335Z" fill="white"/>
</g>
<path d="M554.497 243.49C554.223 242.914 553.366 243.056 552.783 243.319C548.601 245.215 545.262 248.848 543.673 253.146C544.093 248.608 544.159 244.05 543.869 239.513C548.068 234.991 550.529 229.311 550.946 223.153C550.985 222.572 550.08 222.575 550.042 223.153C549.659 228.786 547.466 234 543.779 238.237C543.225 231.189 541.827 224.203 539.569 217.439C539.385 216.89 538.512 217.125 538.697 217.679C541.73 226.768 543.219 236.255 543.148 245.753C538.368 243.642 534.949 239.321 533.135 234.501C532.932 233.961 532.058 234.195 532.264 234.741C534.23 239.964 537.916 244.524 543.133 246.722C543.073 249.923 542.83 253.123 542.414 256.309C540.577 252.137 536.541 244.392 534.034 246.651C533.37 247.25 534.439 249.128 534.774 249.707C536.618 252.887 539.195 255.627 542.231 257.706C541.95 259.611 541.605 261.511 541.194 263.402C541.071 263.969 541.943 264.21 542.066 263.642C542.458 261.835 542.787 260.018 543.063 258.197C543.09 258.155 543.116 258.111 543.145 258.07C543.132 258.036 543.116 257.995 543.102 257.959C543.282 256.743 543.431 255.524 543.56 254.304C548.231 252.592 552.189 249.019 554.345 244.544C554.506 244.213 554.656 243.822 554.497 243.49Z" fill="#AF851C"/>
<path d="M542.372 212.717C540.677 210.497 537.324 208.25 534.782 210.359C533.716 211.244 532.979 212.773 532.951 214.15C532.895 216.878 533.578 219.624 534.891 222.016C536.107 224.235 538.114 227.061 540.987 226.746C542.661 226.561 544.025 225.176 544.59 223.594C545.156 222.012 545.051 220.267 544.752 218.614C544.373 216.508 543.671 214.418 542.372 212.717Z" fill="#6E8959"/>
<path d="M556.441 222.711C556.446 220.209 555.287 216.787 552.326 216.907C551.084 216.957 549.724 217.645 548.952 218.61C547.424 220.522 546.41 222.848 546.038 225.264C545.692 227.504 545.578 230.607 547.795 231.944C549.087 232.722 550.814 232.478 552.081 231.66C553.348 230.841 554.225 229.543 554.916 228.203C555.795 226.497 556.437 224.628 556.441 222.711Z" fill="#6E8959"/>
<path d="M533.875 228.635C531.916 227.074 528.511 225.851 526.762 228.237C526.029 229.238 525.721 230.728 525.998 231.931C526.546 234.315 527.74 236.554 529.403 238.348C530.946 240.012 533.309 242.033 535.737 241.133C537.152 240.609 538.035 239.108 538.181 237.609C538.328 236.11 537.855 234.617 537.234 233.245C536.444 231.496 535.377 229.832 533.875 228.635Z" fill="#6E8959"/>
<g opacity="0.23">
<path d="M554.704 221.197C553.824 218.395 552.395 221.745 552.012 222.748C551.522 224.033 551.031 225.318 550.54 226.604C550.401 226.964 550.261 227.349 550.33 227.728C550.43 228.288 550.994 228.691 551.563 228.716C552.132 228.741 552.68 228.445 553.069 228.031C553.459 227.617 553.71 227.093 553.922 226.565C554.393 225.387 554.693 224.141 554.808 222.878C554.86 222.316 554.874 221.736 554.704 221.197Z" fill="white"/>
</g>
<g opacity="0.23">
<path d="M540.39 213.117C539.681 212.231 538.757 211.541 537.618 211.259C536.521 210.986 536.462 211.994 536.728 212.78C537.171 214.087 538.175 214.672 539.072 215.633C539.668 216.269 540.026 217.286 540.438 218.053C540.832 218.784 541.694 219.251 542.156 218.317C542.556 217.509 541.946 216.306 541.681 215.527C541.392 214.671 540.962 213.83 540.39 213.117Z" fill="white"/>
</g>
<g opacity="0.23">
<path d="M535.571 233.816C535.749 231.067 532.63 228.738 530.172 228.414C528.102 228.142 528.635 229.745 529.791 230.555C531.061 231.445 532.199 232.524 533.154 233.745C533.402 234.062 533.644 234.394 533.979 234.616C534.315 234.838 534.773 234.927 535.119 234.722C535.414 234.546 535.545 234.215 535.571 233.816Z" fill="white"/>
</g>
<path d="M479.613 276.658C478.882 276.113 478.318 275.356 477.977 274.513C477.751 273.954 477.164 272.527 477.887 272.111C478.729 271.628 479.852 273.517 480.277 274.009C480.446 272.952 480.887 271.939 481.543 271.093C481.844 270.704 482.39 270.326 482.782 270.624C483.029 270.812 483.054 271.168 483.036 271.477C482.973 272.582 482.643 273.671 482.08 274.625C482.759 273.799 483.824 273.303 484.895 273.315C485.258 273.318 485.67 273.41 485.85 273.724C486.093 274.146 485.774 274.664 485.443 275.021C484.183 276.385 482.536 277.388 480.746 277.881" fill="#AF851C"/>
<path d="M485.069 287.856C486.522 282.798 485.645 277.119 480.802 274.947C472.628 271.281 467.467 284.807 468.578 290.659C468.973 292.737 470.092 294.744 471.89 295.863C477.795 299.538 483.253 294.181 485.069 287.856Z" fill="#6E8959"/>
<g opacity="0.19">
<path d="M482.373 279.238C482.035 278.668 481.296 278.122 480.612 278.114C478.928 278.099 478.94 280.533 478.893 281.702C478.798 284.052 478.378 286.389 477.647 288.626C477.363 289.495 477.069 290.559 477.688 291.232C478.233 291.825 479.205 291.746 479.944 291.422C481.684 290.659 482.798 288.86 483.184 287.004C483.57 285.147 483.332 283.221 483.015 281.352C482.892 280.622 482.751 279.876 482.373 279.238Z" fill="white"/>
</g>
<path d="M506.6 233.912C505.704 229.298 504.589 224.818 503.603 220.231C506.492 217.974 510.556 217.308 514.016 218.525C514.249 224.043 514.34 229.544 514.133 235.068" fill="#AF851C"/>
<path d="M531.069 278.343C527.926 270.924 523.576 264.122 520.687 256.593C517.042 247.094 514.466 237.064 513.533 227.125L511.956 227.272L507.579 227.682L506.002 227.83C506.937 237.769 506.277 248.102 504.466 258.112C503.03 266.045 500.024 273.536 498.318 281.409C495.739 293.318 495.977 306.71 500.36 318.134C501.369 320.764 502.849 323.336 505.047 325.054C508.746 325.784 512.784 326.174 516.832 326.102C516.832 326.102 518.304 326.11 519.033 326.018C519.765 325.974 521.209 325.692 521.209 325.692C525.201 325.011 529.096 323.879 532.594 322.475C534.433 320.38 535.407 317.578 535.908 314.806C538.086 302.768 535.824 289.565 531.069 278.343Z" fill="#DEDBD4"/>
<path d="M531.44 287.046C530.475 283.042 529.17 279.023 527.083 275.45C526.965 275.249 526.846 275.057 526.727 274.868C523.213 273.395 519.32 272.853 515.396 273.066L515.395 273.058C515.312 273.063 515.23 273.074 515.147 273.078C514.812 273.099 514.476 273.126 514.141 273.158C513.806 273.189 513.471 273.224 513.138 273.266C513.055 273.277 512.973 273.281 512.891 273.292L512.892 273.3C508.996 273.818 505.273 275.072 502.094 277.172C502.013 277.381 501.932 277.591 501.854 277.811C500.469 281.709 499.937 285.9 499.734 290.014C499.41 296.618 499.9 303.264 501.211 309.746C501.886 313.082 502.859 316.529 505.221 318.984C507.687 321.545 511.369 322.653 514.928 322.721C516.068 322.742 517.203 322.659 518.333 322.519C518.481 322.501 518.63 322.489 518.778 322.47C518.927 322.461 519.075 322.446 519.224 322.435C520.361 322.362 521.491 322.234 522.608 322.001C526.092 321.273 529.503 319.501 531.448 316.527C533.311 313.678 533.625 310.11 533.667 306.707C533.747 300.096 532.99 293.475 531.44 287.046Z" fill="#B52922"/>
<path d="M514.672 278.795C519.401 278.352 523.594 276.875 526.618 274.825C523.132 273.387 519.28 272.854 515.397 273.066L515.396 273.058C515.313 273.063 515.231 273.074 515.148 273.078C514.813 273.099 514.477 273.126 514.142 273.158C513.807 273.189 513.472 273.224 513.139 273.266C513.056 273.276 512.974 273.281 512.892 273.292L512.893 273.3C509.038 273.812 505.352 275.05 502.196 277.111C505.546 278.564 509.942 279.238 514.672 278.795Z" fill="#841D1A"/>
<path d="M511.345 258.889C508.953 258.962 506.566 259.155 504.192 259.446C503.449 263.1 502.419 266.674 501.357 270.24C506.659 270.574 512.118 270.381 516.741 268.384C520.138 266.916 519.239 265.232 517.984 262.579C516.301 259.014 515.166 258.772 511.345 258.889Z" fill="#F9F4EA"/>
<path d="M515.987 226.128C514.762 224.642 512.954 224.726 511.167 224.87C511.072 224.878 510.978 224.884 510.883 224.891L510.879 224.839C510.434 224.887 509.987 224.938 509.542 224.99C509.094 225.022 508.646 225.054 508.2 225.09L508.205 225.142C508.11 225.153 508.016 225.164 507.922 225.174C506.138 225.365 504.346 225.618 503.42 227.305C502.692 228.629 503.078 230.2 503.478 231.62C503.885 233.062 504.372 234.114 506.048 234.413C507.029 234.588 508.053 234.6 509.088 234.544L509.089 234.552C509.222 234.542 509.357 234.531 509.491 234.521C509.804 234.499 510.116 234.472 510.429 234.442C510.743 234.414 511.055 234.382 511.366 234.346C511.5 234.331 511.633 234.317 511.767 234.303L511.766 234.294C512.794 234.157 513.798 233.954 514.728 233.601C516.319 232.996 516.602 231.873 516.733 230.38C516.863 228.909 516.949 227.294 515.987 226.128Z" fill="#D3CEC5"/>
<path d="M521.201 286.741C518.092 283.904 512.553 285.708 508.905 286.163C505.075 286.641 501.218 286.868 497.359 286.874C495.913 297.305 496.637 308.428 500.361 318.134C500.427 318.306 500.5 318.476 500.569 318.647C506.921 319.021 513.328 318.45 519.499 316.901C521.173 316.48 522.926 315.932 524.063 314.635C525.821 312.628 525.638 309.217 525.555 306.726C525.442 303.355 525.045 299.993 524.374 296.689C523.821 293.961 523.337 288.689 521.201 286.741Z" fill="#F9F4EA"/>
<path d="M521.224 293.586C520.656 291.444 519.793 289.456 517.597 288.672C516.199 288.173 514.345 288.639 512.932 288.778C510.595 289.008 508.257 289.238 505.92 289.468C502.935 289.762 499.95 290.055 496.965 290.349C496.938 290.653 496.912 290.956 496.888 291.259C502.236 290.732 507.583 290.206 512.932 289.679C514.75 289.501 517.035 288.925 518.59 290.201C519.615 291.041 520.002 292.61 520.352 293.825C521.209 296.799 521.724 299.809 521.967 302.894C522.257 306.583 522.834 310.018 519.371 312.414C516.981 314.068 513.727 314.318 510.928 314.583C507.055 314.95 503.213 315.129 499.362 315.246C499.462 315.563 499.559 315.882 499.664 316.197C504.339 316.094 509.003 315.879 513.655 315.182C516.557 314.747 519.271 313.959 521.427 311.887C523.657 309.743 523.123 306.488 522.932 303.74C522.69 300.26 522.117 296.956 521.224 293.586Z" fill="#AF851C"/>
<path d="M480.35 151.277C478.736 156.029 475.303 160.143 470.91 162.587C469.168 163.557 467.175 164.37 466.16 166.083C465.317 167.507 465.336 169.256 465.258 170.91C464.958 177.279 462.805 183.55 459.129 188.767C458.73 189.334 458.293 189.946 458.314 190.639C458.342 191.614 459.251 192.32 460.13 192.747C464.964 195.099 471.06 193.255 474.928 189.526C478.797 185.797 480.817 180.562 482.164 175.367C483.898 168.679 484.676 161.462 482.35 154.956" fill="#AF851C"/>
<path d="M476.671 155.594C477.83 164.681 475.189 174.191 469.507 181.385C468.826 182.247 468.085 183.113 467.797 184.172C467.127 186.631 469.088 188.986 471.037 190.633C479.67 197.925 491.747 201.583 502.659 198.614C504.107 198.22 505.573 197.688 506.652 196.649C507.872 195.475 508.45 193.806 508.989 192.203C510.977 186.28 512.97 180.339 514.202 174.214C515.027 170.112 515.494 165.78 514.185 161.805C512.877 157.83 509.391 154.318 505.201 154.14" fill="#96701A"/>
<path d="M493.417 131.738C493.153 129.964 492.259 128.357 491.459 126.751C490.533 124.89 489.598 122.656 489.921 120.533C490.24 118.43 492.533 117.899 494.232 119.01C495.331 119.728 496.024 120.912 496.601 122.089C496.417 120.705 496.305 119.098 497.302 118.119C498.38 117.06 500.289 117.367 501.404 118.387C502.518 119.407 503.022 120.917 503.422 122.372C503.393 121.127 504.234 119.909 505.41 119.491C506.586 119.074 508.009 119.489 508.775 120.473C509.541 121.457 509.592 122.934 508.895 123.968C509.718 122.746 512.391 123.186 513.466 123.694C514.935 124.389 514.923 126.57 514.068 127.789C515.123 127.061 516.468 126.743 517.727 126.988C518.931 127.221 520.347 128.052 520.616 129.307C520.902 130.64 520.315 132.335 519.169 133.087C520.171 131.722 522.503 131.655 523.582 132.961C524.66 134.267 524.148 136.538 522.612 137.258C524.081 136.33 526.275 136.864 527.151 138.363C528.026 139.862 527.409 142.03 525.876 142.847C527.658 141.956 530.107 142.865 530.873 144.7C531.639 146.537 530.56 148.911 528.671 149.545C530.287 148.858 532.311 150.093 532.706 151.8C533.112 153.563 531.21 154.952 530.193 156.211C531.078 155.114 533.6 156.558 533.832 157.531C534.185 159.007 532.744 160.832 531.528 161.441C533.181 161.235 534.885 162.482 535.185 164.118C535.485 165.754 534.334 167.521 532.714 167.913C534.183 168.089 535.322 169.66 535.033 171.107C533.955 176.491 523.786 170.76 521.748 168.952" fill="#B52922"/>
<path d="M498.244 134.229C498.46 134.245 498.813 131.781 499.032 128.727C499.25 125.673 499.254 123.184 499.038 123.169C498.822 123.154 498.469 125.617 498.251 128.671C498.032 131.725 498.029 134.214 498.244 134.229Z" fill="#91221F"/>
<path d="M502.623 134.82C502.824 134.888 503.721 132.746 504.423 129.982C505.131 127.219 505.37 124.911 505.161 124.874C504.944 124.834 504.364 127.055 503.665 129.789C502.969 132.524 502.414 134.751 502.623 134.82Z" fill="#91221F"/>
<path d="M513.284 130.484C513.126 130.343 511.548 131.84 509.891 133.936C508.229 136.03 507.132 137.907 507.308 138.028C507.488 138.153 508.86 136.493 510.505 134.421C512.146 132.345 513.448 130.63 513.284 130.484Z" fill="#91221F"/>
<path d="M517.998 134.615C517.862 134.452 515.753 135.977 513.414 138.161C511.073 140.343 509.408 142.341 509.562 142.486C509.721 142.638 511.626 140.896 513.949 138.731C516.269 136.564 518.139 134.784 517.998 134.615Z" fill="#91221F"/>
<path d="M521.855 140.518C521.741 140.335 519.901 141.27 517.745 142.608C515.59 143.946 513.935 145.178 514.049 145.361C514.163 145.544 516.003 144.609 518.159 143.271C520.315 141.934 521.969 140.701 521.855 140.518Z" fill="#91221F"/>
<path d="M525.831 145.494C525.796 145.29 523.485 145.533 520.801 146.488C518.113 147.434 516.164 148.697 516.266 148.877C516.372 149.075 518.441 148.145 521.062 147.225C523.68 146.293 525.873 145.715 525.831 145.494Z" fill="#91221F"/>
<path d="M528.986 150.819C528.954 150.608 526.772 150.765 524.137 151.303C521.501 151.839 519.432 152.55 519.486 152.756C519.54 152.968 521.679 152.6 524.293 152.069C526.906 151.534 529.018 151.035 528.986 150.819Z" fill="#91221F"/>
<path d="M529.992 156.129C529.967 155.914 528.048 155.967 525.709 156.246C523.369 156.525 521.492 156.925 521.519 157.139C521.544 157.354 523.462 157.301 525.802 157.022C528.141 156.743 530.018 156.343 529.992 156.129Z" fill="#91221F"/>
<path d="M531.854 162.7C531.878 162.485 529.995 162.101 527.65 161.841C525.305 161.582 523.384 161.545 523.36 161.759C523.337 161.974 525.219 162.358 527.564 162.618C529.91 162.878 531.83 162.915 531.854 162.7Z" fill="#91221F"/>
<path d="M531.222 168.577C531.276 168.367 529.578 167.75 527.429 167.197C525.28 166.644 523.495 166.364 523.441 166.573C523.386 166.783 525.085 167.4 527.234 167.953C529.383 168.506 531.168 168.785 531.222 168.577Z" fill="#91221F"/>
<path d="M491.873 138.878C492.998 136.571 492.278 133.971 493.289 131.576C501.347 132.898 509.362 137.802 515.298 143.302C523.138 150.565 527.616 160.652 525.87 171.323C521.536 170.879 517.105 171.392 512.988 172.814" fill="#AF851C"/>
<path d="M507.27 143.023C517.984 150.15 523.962 163.289 521.256 175.912C520.205 180.811 518.501 185.59 518.022 190.577C517.742 193.495 517.931 196.528 518.876 199.318C519.57 201.366 523.023 203.818 521.661 205.979C520.899 207.188 519.417 207.717 518.02 208.034C509.118 210.053 499.297 206.728 491.539 202.472C491.122 202.243 490.657 201.913 490.662 201.437C490.665 201.016 491.038 200.705 491.372 200.449C495.485 197.301 497.999 193.51 500.813 189.339C503.687 185.075 504.917 179.95 506.094 174.947C507.09 170.713 508.087 166.479 509.083 162.245C509.158 161.927 509.233 161.592 509.148 161.277C509.001 160.729 508.405 160.404 507.838 160.367C507.271 160.329 506.716 160.511 506.164 160.647C501.454 161.809 496.61 159.748 492.216 157.693C485.376 154.494 478.18 150.831 474.436 144.283C470.149 136.786 482.469 136.425 486.923 136.534C494.123 136.71 501.284 139.041 507.27 143.023Z" fill="#DBA121"/>
<path d="M471.278 157.619C473.854 159.181 477.326 160.167 480.038 161.122C483.57 162.365 487.192 163.353 490.867 164.076C494.207 164.734 497.59 165.172 500.988 165.387C501.722 165.433 508.866 164.871 508.789 164.129C508.647 162.785 508.707 161.42 508.967 160.093C508.87 160.585 504.984 158.715 504.632 158.477C503.194 157.504 501.578 156.759 500.09 155.85C496.837 153.861 493.755 151.608 490.711 149.317C485.335 145.27 480.56 141.605 477.204 135.577C476.867 134.974 476.524 134.334 475.941 133.962C474.922 133.313 473.496 133.745 472.658 134.615C471.014 136.32 469.374 139.635 468.388 141.784C467.033 144.736 466.14 147.984 465.925 151.231C465.754 153.829 468.433 155.547 470.241 156.918C470.566 157.164 470.913 157.397 471.278 157.619Z" fill="#AF851C"/>
<path d="M508.061 160.6C506.679 165.426 503.45 169.7 499.183 172.355C497.49 173.408 495.539 174.318 494.608 176.078C493.835 177.541 493.939 179.287 493.942 180.942C493.952 187.318 492.107 193.687 488.689 199.075C488.317 199.66 487.912 200.293 487.966 200.984C488.042 201.957 488.984 202.618 489.882 203.002C494.826 205.116 500.824 202.98 504.506 199.068C508.188 195.156 509.952 189.829 511.044 184.574C512.45 177.811 512.876 170.564 510.237 164.179" fill="#AF851C"/>
<path d="M493.018 132.073C511.352 136.55 526.66 152.014 525.839 171.742C525.79 172.906 527.599 172.901 527.647 171.742C528.5 151.233 512.585 134.994 493.499 130.333C492.366 130.057 491.886 131.797 493.018 132.073Z" fill="#F4AC1C"/>
<path d="M509.232 165.692C509.177 165.348 508.655 165.494 508.709 165.835C509.88 173.189 509.425 180.64 507.331 187.79C506.226 191.567 504.534 194.615 501.688 197.361C500.321 198.68 498.732 199.61 496.949 200.239C496.064 200.552 495.123 200.646 494.193 200.692C492.553 200.969 491.896 200.063 492.224 197.973C492.501 197.625 492.775 197.276 493.047 196.925C494.835 194.584 495.827 191.968 496.292 189.074C496.791 185.973 496.158 182.82 496.994 179.758C497.929 176.333 502.109 175.049 504.326 172.561C506.257 170.395 507.23 167.466 507.825 164.686C507.898 164.346 507.375 164.201 507.301 164.543C506.294 169.248 504.179 172.592 500.156 175.264C497.433 177.072 496.249 179.246 495.997 182.482C495.652 186.916 496.006 190.819 493.779 194.9C493.238 195.893 489.284 199.928 492.207 200.924C498.855 203.187 505.12 195.552 507.104 190.198C509.989 182.42 510.53 173.841 509.232 165.692Z" fill="#F4AC1C"/>
<path d="M509.507 167.512C512.609 167.512 515.123 165.003 515.123 161.909C515.123 158.814 512.609 156.306 509.507 156.306C506.406 156.306 503.892 158.814 503.892 161.909C503.892 165.003 506.406 167.512 509.507 167.512Z" fill="#F4AC1C"/>
<path d="M509.507 165.125C511.288 165.125 512.731 163.685 512.731 161.909C512.731 160.132 511.288 158.692 509.507 158.692C507.727 158.692 506.284 160.132 506.284 161.909C506.284 163.685 507.727 165.125 509.507 165.125Z" fill="#AF851C"/>
<path d="M315.707 186.24L315.881 186.066C315.959 186.105 316.055 186.221 316.171 186.414C316.307 186.608 316.384 186.782 316.403 186.936C316.442 187.091 316.461 187.236 316.461 187.371C316.461 187.893 316.345 188.425 316.113 188.966L310.835 200.566H310.545L306.369 189.343L301.265 200.566H300.975L295.581 186.066H297.611L302.048 198.072L306.224 188.995L305.151 186.066H307.181L311.618 198.072L315.823 188.966C316.055 188.56 316.171 188.077 316.171 187.516C316.171 186.956 316.017 186.53 315.707 186.24ZM320.043 193.49C320.043 195.888 320.459 197.647 321.29 198.768C322.141 199.89 323.252 200.45 324.625 200.45C326.558 200.45 328.279 200.16 329.787 199.58L329.874 199.783C328.327 200.383 326.578 200.682 324.625 200.682C322.692 200.682 321.116 200.102 319.898 198.942C318.68 197.782 318.071 195.994 318.071 193.577C318.071 191.161 318.709 189.285 319.985 187.951C321.261 186.617 322.885 185.95 324.857 185.95C326.442 185.95 327.776 186.424 328.859 187.371C329.942 188.319 330.483 189.72 330.483 191.576C330.483 191.673 330.483 191.77 330.483 191.866H320.13C320.072 192.388 320.043 192.93 320.043 193.49ZM328.511 191.634C328.492 189.778 328.134 188.406 327.438 187.516C326.742 186.627 325.843 186.182 324.741 186.182C323.639 186.182 322.653 186.666 321.783 187.632C320.932 188.599 320.391 189.933 320.159 191.634H328.511ZM336.226 200.566C334.524 200.566 333.451 200.122 333.007 199.232C332.91 199.039 332.862 198.865 332.862 198.71V178.845H334.892V198.507C334.892 199.068 334.998 199.503 335.211 199.812C335.443 200.102 335.675 200.257 335.907 200.276L336.226 200.334H337.125V200.566H336.226ZM344.653 186.182C343.28 186.182 342.13 186.84 341.202 188.154C340.293 189.469 339.839 191.286 339.839 193.606C339.839 195.926 340.255 197.647 341.086 198.768C341.937 199.89 343.048 200.45 344.421 200.45C346.142 200.45 347.669 200.16 349.003 199.58L349.09 199.783C347.717 200.383 346.113 200.682 344.276 200.682C342.439 200.682 340.912 200.102 339.694 198.942C338.476 197.782 337.867 195.994 337.867 193.577C337.867 191.161 338.505 189.285 339.781 187.951C341.057 186.617 342.681 185.95 344.653 185.95C345.755 185.95 346.77 186.202 347.698 186.704C348.645 187.207 349.341 187.971 349.786 188.995H347.93C347.64 188.048 347.195 187.342 346.596 186.878C346.016 186.414 345.368 186.182 344.653 186.182ZM358.136 200.682C356.106 200.682 354.453 200.102 353.177 198.942C351.901 197.782 351.263 195.994 351.263 193.577C351.263 191.161 351.92 189.285 353.235 187.951C354.569 186.617 356.251 185.95 358.281 185.95C360.33 185.95 361.993 186.53 363.269 187.69C364.545 188.85 365.183 190.639 365.183 193.055C365.183 195.472 364.516 197.347 363.182 198.681C361.867 200.015 360.185 200.682 358.136 200.682ZM358.339 186.182C356.869 186.182 355.651 186.84 354.685 188.154C353.718 189.45 353.235 191.267 353.235 193.606C353.235 195.926 353.679 197.647 354.569 198.768C355.458 199.89 356.637 200.45 358.107 200.45C359.576 200.45 360.794 199.803 361.761 198.507C362.727 197.193 363.211 195.375 363.211 193.055C363.211 190.716 362.766 188.986 361.877 187.864C360.987 186.743 359.808 186.182 358.339 186.182ZM384.411 189.401C384.411 188.222 384.256 187.391 383.947 186.907C383.637 186.424 383.048 186.182 382.178 186.182C381.018 186.182 379.983 186.666 379.075 187.632C378.185 188.599 377.741 189.469 377.741 190.242V200.566H375.711V189.401C375.711 188.222 375.556 187.391 375.247 186.907C374.937 186.424 374.28 186.182 373.275 186.182C372.269 186.182 371.312 186.646 370.404 187.574C369.514 188.502 369.031 189.363 368.954 190.155V200.566H366.924V186.066H368.954V189.343C369.263 188.512 369.833 187.739 370.665 187.023C371.496 186.308 372.424 185.95 373.449 185.95C374.473 185.95 375.285 186.047 375.885 186.24C376.503 186.414 376.938 186.695 377.19 187.081C377.441 187.468 377.596 187.806 377.654 188.096C377.712 188.386 377.741 188.792 377.741 189.314C378.05 188.483 378.611 187.719 379.423 187.023C380.235 186.308 381.105 185.95 382.033 185.95C382.961 185.95 383.705 186.028 384.266 186.182C384.826 186.337 385.242 186.511 385.513 186.704C385.803 186.898 386.015 187.178 386.151 187.545C386.305 187.913 386.392 188.212 386.412 188.444C386.431 188.676 386.441 189.005 386.441 189.43V198.507C386.441 199.068 386.547 199.503 386.76 199.812C386.992 200.102 387.224 200.257 387.456 200.276L387.775 200.334H388.674V200.566H386.905C386.112 200.566 385.503 200.392 385.078 200.044C384.672 199.696 384.459 199.348 384.44 199L384.411 198.507V189.401ZM391.524 193.49C391.524 195.888 391.939 197.647 392.771 198.768C393.621 199.89 394.733 200.45 396.106 200.45C398.039 200.45 399.76 200.16 401.268 199.58L401.355 199.783C399.808 200.383 398.058 200.682 396.106 200.682C394.172 200.682 392.597 200.102 391.379 198.942C390.161 197.782 389.552 195.994 389.552 193.577C389.552 191.161 390.19 189.285 391.466 187.951C392.742 186.617 394.366 185.95 396.338 185.95C397.923 185.95 399.257 186.424 400.34 187.371C401.422 188.319 401.964 189.72 401.964 191.576C401.964 191.673 401.964 191.77 401.964 191.866H391.611C391.553 192.388 391.524 192.93 391.524 193.49ZM399.992 191.634C399.972 189.778 399.615 188.406 398.919 187.516C398.223 186.627 397.324 186.182 396.222 186.182C395.12 186.182 394.134 186.666 393.264 187.632C392.413 188.599 391.872 189.933 391.64 191.634H399.992ZM412.544 186.298V186.066H413.153V183.166H415.183V186.066H419.62V186.298H415.183V196.854C415.183 198.111 415.319 199.02 415.589 199.58C415.879 200.141 416.469 200.421 417.358 200.421C418.267 200.421 419.185 200.238 420.113 199.87L420.2 200.102C419.234 200.47 418.122 200.653 416.865 200.653C415.628 200.653 414.7 200.402 414.081 199.899C413.463 199.377 413.153 198.353 413.153 196.825V186.298H412.544ZM427.804 200.682C425.774 200.682 424.121 200.102 422.845 198.942C421.569 197.782 420.931 195.994 420.931 193.577C420.931 191.161 421.588 189.285 422.903 187.951C424.237 186.617 425.919 185.95 427.949 185.95C429.998 185.95 431.661 186.53 432.937 187.69C434.213 188.85 434.851 190.639 434.851 193.055C434.851 195.472 434.184 197.347 432.85 198.681C431.535 200.015 429.853 200.682 427.804 200.682ZM428.007 186.182C426.537 186.182 425.319 186.84 424.353 188.154C423.386 189.45 422.903 191.267 422.903 193.606C422.903 195.926 423.347 197.647 424.237 198.768C425.126 199.89 426.305 200.45 427.775 200.45C429.244 200.45 430.462 199.803 431.429 198.507C432.395 197.193 432.879 195.375 432.879 193.055C432.879 190.716 432.434 188.986 431.545 187.864C430.655 186.743 429.476 186.182 428.007 186.182Z" fill="#96701A"/>
<path d="M289.956 208.436V207.666H303.662V208.436H299.889V260.796H303.662V261.566H289.956V260.796H293.498V208.436H289.956ZM311.023 223.682V223.066H312.64V215.366H318.03V223.066H329.811V223.682H318.03V251.71C318.03 255.047 318.389 257.46 319.108 258.948C319.878 260.437 321.444 261.181 323.805 261.181C326.218 261.181 328.656 260.694 331.12 259.718L331.351 260.334C328.784 261.31 325.833 261.797 322.496 261.797C319.211 261.797 316.747 261.13 315.104 259.795C313.461 258.409 312.64 255.689 312.64 251.633V223.682H311.023ZM367.422 261.566C363.931 261.566 361.544 260.899 360.261 259.564C359.08 258.435 358.49 257.46 358.49 256.638V255.021C355.975 259.59 351.945 261.874 346.401 261.874C339.933 261.874 336.263 258.948 335.39 253.096C335.287 252.48 335.236 251.864 335.236 251.248C335.236 250.581 335.339 249.862 335.544 249.092C335.749 248.322 336.34 247.475 337.315 246.551C339.266 244.703 343.552 243.574 350.174 243.163C351.817 243.009 353.331 242.932 354.717 242.932C356.103 242.932 357.361 242.984 358.49 243.086V230.304C358.387 230.253 358.387 230.022 358.49 229.611C358.593 229.149 358.49 228.585 358.182 227.917C357.925 227.199 357.566 226.506 357.104 225.838C356.642 225.171 355.821 224.606 354.64 224.144C353.459 223.631 351.919 223.374 350.02 223.374C348.121 223.374 345.888 223.734 343.321 224.452C340.806 225.12 338.958 225.787 337.777 226.454L337.469 225.915C342.038 223.811 346.683 222.758 351.406 222.758C356.693 222.758 360.184 223.708 361.878 225.607C363.213 227.096 363.88 228.662 363.88 230.304V256.099C363.88 257.588 364.162 258.743 364.727 259.564C365.343 260.334 365.959 260.745 366.575 260.796L367.422 260.95H369.809V261.566H367.422ZM347.633 261.258C350.354 261.258 352.792 260.334 354.948 258.486C357.155 256.587 358.336 254.765 358.49 253.019V243.702C357.104 243.6 355.692 243.548 354.255 243.548C352.869 243.548 351.483 243.625 350.097 243.779C346.196 244.241 343.655 245.114 342.474 246.397C341.293 247.681 340.703 249.452 340.703 251.71C340.703 252.121 340.729 252.583 340.78 253.096C341.242 258.538 343.526 261.258 347.633 261.258ZM385.329 261.566C380.811 261.566 377.962 260.386 376.782 258.024C376.525 257.511 376.397 257.049 376.397 256.638V203.893H381.787V256.099C381.787 257.588 382.069 258.743 382.634 259.564C383.25 260.334 383.866 260.745 384.482 260.796L385.329 260.95H387.716V261.566H385.329ZM399.872 261.566C397.767 261.566 396.15 261.104 395.021 260.18C393.943 259.256 393.378 258.332 393.327 257.408L393.25 256.099V223.066H398.64V256.099C398.64 257.588 398.922 258.743 399.487 259.564C400.103 260.334 400.693 260.745 401.258 260.796L402.182 260.95H404.569V261.566H399.872ZM393.712 214.442C393.096 213.826 392.788 213.056 392.788 212.132C392.788 211.208 393.096 210.438 393.712 209.822C394.328 209.155 395.098 208.821 396.022 208.821C396.946 208.821 397.716 209.155 398.332 209.822C398.999 210.438 399.333 211.208 399.333 212.132C399.333 213.056 398.999 213.826 398.332 214.442C397.716 215.058 396.946 215.366 396.022 215.366C395.098 215.366 394.328 215.058 393.712 214.442ZM441.038 261.566C437.548 261.566 435.161 260.899 433.877 259.564C432.697 258.435 432.106 257.46 432.106 256.638V255.021C429.591 259.59 425.561 261.874 420.017 261.874C413.549 261.874 409.879 258.948 409.006 253.096C408.904 252.48 408.852 251.864 408.852 251.248C408.852 250.581 408.955 249.862 409.16 249.092C409.366 248.322 409.956 247.475 410.931 246.551C412.882 244.703 417.168 243.574 423.79 243.163C425.433 243.009 426.947 242.932 428.333 242.932C429.719 242.932 430.977 242.984 432.106 243.086V230.304C432.004 230.253 432.004 230.022 432.106 229.611C432.209 229.149 432.106 228.585 431.798 227.917C431.542 227.199 431.182 226.506 430.72 225.838C430.258 225.171 429.437 224.606 428.256 224.144C427.076 223.631 425.536 223.374 423.636 223.374C421.737 223.374 419.504 223.734 416.937 224.452C414.422 225.12 412.574 225.787 411.393 226.454L411.085 225.915C415.654 223.811 420.3 222.758 425.022 222.758C430.31 222.758 433.8 223.708 435.494 225.607C436.829 227.096 437.496 228.662 437.496 230.304V256.099C437.496 257.588 437.779 258.743 438.343 259.564C438.959 260.334 439.575 260.745 440.191 260.796L441.038 260.95H443.425V261.566H441.038ZM421.249 261.258C423.97 261.258 426.408 260.334 428.564 258.486C430.772 256.587 431.952 254.765 432.106 253.019V243.702C430.72 243.6 429.309 243.548 427.871 243.548C426.485 243.548 425.099 243.625 423.713 243.779C419.812 244.241 417.271 245.114 416.09 246.397C414.91 247.681 414.319 249.452 414.319 251.71C414.319 252.121 414.345 252.583 414.396 253.096C414.858 258.538 417.143 261.258 421.249 261.258Z" fill="black"/>
<defs>
<filter id="filter0_f_98_721" x="-27.614" y="-14.6245" width="441.798" height="422.882" filterUnits="userSpaceOnUse" color-interpolation-filters="sRGB">
<feFlood flood-opacity="0" result="BackgroundImageFix"/>
<feBlend mode="normal" in="SourceGraphic" in2="BackgroundImageFix" result="shape"/>
<feGaussianBlur stdDeviation="14.25" result="effect1_foregroundBlur_98_721"/>
</filter>
<filter id="filter1_f_98_721" x="164.066" y="30.0664" width="409" height="426" filterUnits="userSpaceOnUse" color-interpolation-filters="sRGB">
<feFlood flood-opacity="0" result="BackgroundImageFix"/>
<feBlend mode="normal" in="SourceGraphic" in2="BackgroundImageFix" result="shape"/>
<feGaussianBlur stdDeviation="14.25" result="effect1_foregroundBlur_98_721"/>
</filter>
<filter id="filter2_f_98_721" x="381.223" y="82.3359" width="389.333" height="468" filterUnits="userSpaceOnUse" color-interpolation-filters="sRGB">
<feFlood flood-opacity="0" result="BackgroundImageFix"/>
<feBlend mode="normal" in="SourceGraphic" in2="BackgroundImageFix" result="shape"/>
<feGaussianBlur stdDeviation="14.25" result="effect1_foregroundBlur_98_721"/>
</filter>
<clipPath id="clip0_98_721">
<rect width="405.843" height="325.888" fill="white" transform="translate(742.056 116.044) rotate(90.9158)"/>
</clipPath>
</defs>
</svg>
