<svg width="131" height="64" viewBox="0 0 131 64" fill="none" xmlns="http://www.w3.org/2000/svg">
<rect y="51.5" width="43.6667" height="4.58182" fill="#008C45"/>
<rect x="43.6666" y="51.5" width="43.6667" height="4.58182" fill="#F4F9FF"/>
<rect x="87.3334" y="51.5" width="43.6667" height="4.58182" fill="#CD212A"/>
<path d="M0.44 44.885C0.403333 44.9217 0.366667 44.94 0.33 44.94C0.22 44.94 0.165 44.775 0.165 44.445C0.165 44.225 0.22 44.005 0.33 43.785C0.476667 43.5283 0.733333 43.3817 1.1 43.345C2.12667 43.2717 3.09833 42.9233 4.015 42.3C4.93167 41.6767 5.73833 40.9433 6.435 40.1C7.13167 39.22 7.62667 38.395 7.92 37.625L12.98 24.975C13.6767 23.2517 14.465 21.5833 15.345 19.97C16.2617 18.3567 17.4167 17.0367 18.81 16.01C20.24 14.9833 22.0367 14.47 24.2 14.47C25.0433 14.47 25.8867 14.58 26.73 14.8C27.61 14.9833 28.3433 15.295 28.93 15.735C29.5167 16.175 29.81 16.7983 29.81 17.605C29.81 17.715 29.81 17.825 29.81 17.935C29.81 18.045 29.7917 18.155 29.755 18.265C29.645 18.8517 29.315 19.4383 28.765 20.025C28.2517 20.6117 27.8483 21.345 27.555 22.225C27.5183 22.4817 27.3533 22.61 27.06 22.61C26.8033 22.61 26.7483 22.445 26.895 22.115C27.1883 21.675 27.4083 21.1617 27.555 20.575C27.7383 19.9517 27.83 19.3283 27.83 18.705C27.83 17.7517 27.61 16.9083 27.17 16.175C26.73 15.4417 25.9783 15.075 24.915 15.075C23.9617 15.075 22.99 15.35 22 15.9C21.01 16.45 20.1483 17.4033 19.415 18.76L9.24 37.515C8.28667 39.275 7.40667 40.54 6.6 41.31C5.83 42.0433 5.18833 42.5017 4.675 42.685H17.93C19.69 42.685 21.3217 42.63 22.825 42.52C24.3283 42.41 25.245 42.135 25.575 41.695C25.9417 41.1817 26.125 40.6317 26.125 40.045C26.125 39.1283 25.63 38.45 24.64 38.01C24.53 37.9367 24.475 37.8633 24.475 37.79C24.475 37.7167 24.5117 37.6433 24.585 37.57C24.695 37.4967 24.8233 37.4967 24.97 37.57C25.3 37.7167 25.685 38.0467 26.125 38.56C26.6017 39.0367 27.0417 39.5683 27.445 40.155C27.8483 40.705 28.105 41.145 28.215 41.475C28.325 41.805 28.38 42.135 28.38 42.465C28.38 43.9683 27.0783 44.72 24.475 44.72C22.4217 44.72 20.2217 44.6467 17.875 44.5C15.5283 44.3533 13.2 44.1883 10.89 44.005C8.61667 43.8217 6.47167 43.6933 4.455 43.62C3.685 43.5467 2.915 43.6567 2.145 43.95C1.41167 44.2067 0.843333 44.5183 0.44 44.885ZM46.1381 23.49C45.6248 23.49 45.2581 23.325 45.0381 22.995C44.8915 22.8117 44.8181 22.5733 44.8181 22.28C44.8181 21.6933 45.0931 21.2167 45.6431 20.85C46.0465 20.63 46.4131 20.52 46.7431 20.52C47.2931 20.52 47.6781 20.685 47.8981 21.015C48.0448 21.1983 48.1181 21.4367 48.1181 21.73C48.1181 22.3167 47.8248 22.7933 47.2381 23.16C46.9081 23.38 46.5415 23.49 46.1381 23.49ZM36.5681 44.665C36.2015 44.665 35.8898 44.5917 35.6331 44.445C35.4131 44.2983 35.3031 44.0233 35.3031 43.62C35.3031 43.1067 35.4315 42.5017 35.6881 41.805C35.9815 41.1083 36.2931 40.4117 36.6231 39.715C36.9898 39.0183 37.2648 38.45 37.4481 38.01C37.7048 37.4967 38.0165 36.8367 38.3831 36.03C38.7865 35.1867 39.1531 34.3983 39.4831 33.665C39.8498 32.895 40.1065 32.3633 40.2531 32.07C39.7398 32.62 39.1165 33.3167 38.3831 34.16C37.6865 34.9667 37.0265 35.755 36.4031 36.525C35.7798 37.295 35.3031 37.9 34.9731 38.34C34.8631 38.4867 34.7715 38.56 34.6981 38.56C34.6248 38.56 34.5881 38.4683 34.5881 38.285C34.5881 37.9917 34.6798 37.7167 34.8631 37.46C35.5598 36.58 36.3298 35.59 37.1731 34.49C38.0531 33.39 38.8415 32.3817 39.5381 31.465C40.2348 30.5117 40.6748 29.8883 40.8581 29.595C41.2615 29.5217 41.8481 29.4117 42.6181 29.265C43.4248 29.1183 43.9748 28.9167 44.2681 28.66C44.3781 28.55 44.4881 28.495 44.5981 28.495C44.6715 28.495 44.7081 28.5683 44.7081 28.715C44.7448 28.825 44.7081 28.9533 44.5981 29.1C44.3781 29.3567 43.9931 29.98 43.4431 30.97C42.8931 31.96 42.3065 33.06 41.6831 34.27C41.0965 35.4433 40.5465 36.5067 40.0331 37.46C39.5198 38.45 39.0798 39.4033 38.7131 40.32C38.3465 41.2367 38.1631 41.8967 38.1631 42.3C38.1631 42.8133 38.4198 43.07 38.9331 43.07C39.4098 43.07 40.0148 42.7767 40.7481 42.19C41.5181 41.6033 42.2881 40.9067 43.0581 40.1C43.8281 39.2567 44.5065 38.4867 45.0931 37.79C45.2765 37.57 45.4965 37.3133 45.7531 37.02C46.0465 36.69 46.2298 36.4883 46.3031 36.415C46.3765 36.4883 46.4131 36.6167 46.4131 36.8C46.3765 37.0567 46.2848 37.3133 46.1381 37.57C45.9915 37.79 45.8448 37.9917 45.6981 38.175C44.9281 39.1283 44.0848 40.1183 43.1681 41.145C42.2515 42.135 41.2431 42.9783 40.1431 43.675C39.0431 44.335 37.8515 44.665 36.5681 44.665ZM52.5392 44.83C52.0258 44.83 51.5858 44.6467 51.2192 44.28C50.8525 43.9133 50.6692 43.2717 50.6692 42.355C50.6692 41.5483 50.7242 40.595 50.8342 39.495C50.9808 38.395 51.1825 37.2767 51.4392 36.14C51.6958 34.9667 51.9892 33.94 52.3192 33.06C51.6958 33.9767 50.9992 34.93 50.2292 35.92C49.4592 36.8733 48.8175 37.68 48.3042 38.34C48.1942 38.4867 48.1025 38.56 48.0292 38.56C47.9558 38.56 47.9192 38.4683 47.9192 38.285C47.9192 37.9917 48.0108 37.7167 48.1942 37.46C48.9642 36.3967 49.8258 35.1867 50.7792 33.83C51.7692 32.4733 52.6125 31.245 53.3092 30.145C53.7125 30.0717 54.1892 29.9617 54.7392 29.815C55.3258 29.6683 55.7475 29.4667 56.0042 29.21C56.1875 29.1 56.2975 29.045 56.3342 29.045C56.4442 29.045 56.4992 29.1183 56.4992 29.265C56.4992 29.375 56.4442 29.5033 56.3342 29.65C56.0042 30.1267 55.6375 30.86 55.2342 31.85C54.8675 32.84 54.4825 33.94 54.0792 35.15C53.7125 36.36 53.4008 37.5517 53.1442 38.725C52.9242 39.8617 52.8142 40.8333 52.8142 41.64C52.8142 42.2267 52.9058 42.6483 53.0892 42.905C53.2725 43.125 53.5108 43.235 53.8042 43.235C54.2075 43.235 54.6842 43.0333 55.2342 42.63C55.8208 42.2267 56.3158 41.805 56.7192 41.365C57.2325 40.815 57.8008 40.0817 58.4242 39.165C59.0842 38.2483 59.6892 37.2767 60.2392 36.25C60.8258 35.2233 61.2658 34.2883 61.5592 33.445C61.7792 32.8583 61.9258 32.3633 61.9992 31.96C62.0725 31.52 62.1092 31.1717 62.1092 30.915C62.1092 30.475 62.0542 30.1633 61.9442 29.98C61.8342 29.7967 61.7425 29.6867 61.6692 29.65C61.4492 29.5767 61.3392 29.485 61.3392 29.375C61.3392 29.3017 61.4125 29.2467 61.5592 29.21C61.7058 29.1367 61.8525 29.1367 61.9992 29.21C62.4758 29.3567 62.9525 29.5767 63.4292 29.87C63.9058 30.1267 64.1442 30.64 64.1442 31.41C64.1442 31.5933 64.1258 31.8133 64.0892 32.07C64.0525 32.29 63.9792 32.5467 63.8692 32.84C63.6492 33.4267 63.1908 34.2517 62.4942 35.315C61.8342 36.3783 61.0642 37.4967 60.1842 38.67C59.3042 39.8433 58.4242 40.9067 57.5442 41.86C56.6642 42.8133 55.8942 43.4917 55.2342 43.895C54.7942 44.1517 54.3358 44.3717 53.8592 44.555C53.3825 44.7383 52.9425 44.83 52.5392 44.83ZM74.4262 44.665C74.0595 44.665 73.7478 44.5917 73.4912 44.445C73.2345 44.2983 73.1062 44.0233 73.1062 43.62C73.1062 43.1067 73.2345 42.52 73.4912 41.86C73.7478 41.2 74.0412 40.5583 74.3712 39.935C74.7012 39.275 74.9945 38.7433 75.2512 38.34C73.9678 39.6967 72.6295 40.98 71.2362 42.19C70.5395 42.7767 69.7695 43.3267 68.9262 43.84C68.0828 44.3533 67.1845 44.61 66.2312 44.61C65.8645 44.61 65.6078 44.5 65.4612 44.28C65.3145 44.0233 65.2412 43.73 65.2412 43.4C65.2412 43.2167 65.2595 43.0883 65.2962 43.015C65.4795 41.585 65.9378 40.1 66.6712 38.56C67.4045 37.02 68.3028 35.5717 69.3662 34.215C70.4295 32.8583 71.5112 31.7583 72.6112 30.915C73.8578 29.9617 75.2328 29.485 76.7362 29.485H83.0612C83.2445 29.485 83.3362 29.5583 83.3362 29.705C83.3362 29.9983 83.1712 30.145 82.8412 30.145C82.4745 30.145 82.1078 30.3833 81.7412 30.86C81.3745 31.3 81.0995 31.6667 80.9162 31.96C80.6595 32.3633 80.2562 33.0417 79.7062 33.995C79.1562 34.9483 78.5878 35.9933 78.0012 37.13C77.4512 38.23 76.9745 39.2567 76.5712 40.21C76.1678 41.1633 75.9662 41.86 75.9662 42.3C75.9662 42.8133 76.2228 43.07 76.7362 43.07C77.2862 43.07 77.9095 42.8133 78.6062 42.3C79.3028 41.7867 79.9995 41.1633 80.6962 40.43C81.4295 39.66 82.0895 38.9083 82.6762 38.175C83.2995 37.405 83.7945 36.8 84.1612 36.36C84.3812 36.58 84.3628 36.8917 84.1062 37.295C83.8862 37.6617 83.6845 37.955 83.5012 38.175C82.7678 39.1283 81.9245 40.1183 80.9712 41.145C80.0178 42.135 78.9728 42.9783 77.8362 43.675C76.7362 44.335 75.5995 44.665 74.4262 44.665ZM68.4862 42.74C68.9262 42.74 69.5312 42.4283 70.3012 41.805C71.1078 41.145 71.9695 40.3383 72.8862 39.385C73.8028 38.395 74.6645 37.3683 75.4712 36.305C76.2778 35.205 76.9378 34.215 77.4512 33.335C78.0012 32.4183 78.2762 31.7217 78.2762 31.245C78.2762 30.8417 78.1478 30.5667 77.8912 30.42C77.6712 30.2733 77.3778 30.2 77.0112 30.2C76.4245 30.2 75.7828 30.42 75.0862 30.86C74.4262 31.2633 73.8945 31.6667 73.4912 32.07C73.0512 32.4733 72.5195 33.115 71.8962 33.995C71.3095 34.8383 70.7228 35.7733 70.1362 36.8C69.5495 37.8267 69.0545 38.8167 68.6512 39.77C68.2478 40.7233 68.0462 41.4933 68.0462 42.08C68.0462 42.52 68.1928 42.74 68.4862 42.74ZM89.4932 44.61C88.3932 44.61 87.6415 44.3533 87.2382 43.84C86.8348 43.29 86.6332 42.63 86.6332 41.86C86.6332 40.8333 86.8532 39.7333 87.2932 38.56C87.7698 37.3867 88.1548 36.47 88.4482 35.81C87.9715 36.3233 87.5132 36.8183 87.0732 37.295C86.6332 37.7717 86.3215 38.12 86.1382 38.34C86.0282 38.4867 85.9365 38.56 85.8632 38.56C85.7898 38.56 85.7532 38.4683 85.7532 38.285C85.7532 37.9917 85.8448 37.7167 86.0282 37.46C86.5415 36.8 87.1282 36.1033 87.7882 35.37C88.4482 34.6367 89.0898 33.8667 89.7132 33.06C90.4465 31.7033 91.2532 30.1267 92.1332 28.33C93.0498 26.4967 93.9848 24.6267 94.9382 22.72C95.9282 20.7767 96.8815 18.9983 97.7982 17.385C98.7515 15.735 99.5948 14.415 100.328 13.425C100.951 13.1683 101.538 12.8383 102.088 12.435C102.675 12.0317 103.243 11.665 103.793 11.335C104.38 10.9683 104.985 10.785 105.608 10.785C106.011 10.785 106.305 10.895 106.488 11.115C106.708 11.335 106.855 11.5917 106.928 11.885C106.965 11.995 106.983 12.1967 106.983 12.49C106.983 13.3333 106.69 14.36 106.103 15.57C105.553 16.78 104.893 17.9717 104.123 19.145C103.39 20.2817 102.748 21.2167 102.198 21.95C100.731 24.0033 99.2282 25.8733 97.6882 27.56C96.1482 29.21 94.7548 30.6033 93.5082 31.74C92.2982 32.84 91.4182 33.6467 90.8682 34.16C90.6115 34.6367 90.2998 35.2783 89.9332 36.085C89.6032 36.855 89.3098 37.68 89.0532 38.56C88.7965 39.4033 88.6682 40.1917 88.6682 40.925C88.6682 41.5483 88.8148 42.08 89.1082 42.52C89.4015 42.9233 89.8965 43.125 90.5932 43.125C90.7032 43.125 90.8132 43.125 90.9232 43.125C91.0332 43.125 91.1615 43.1067 91.3082 43.07C91.9315 42.96 92.6098 42.6117 93.3432 42.025C94.0765 41.4383 94.8098 40.76 95.5432 39.99C96.2765 39.22 96.9365 38.4867 97.5232 37.79C97.7798 37.4967 98.0182 37.2217 98.2382 36.965C98.4582 36.6717 98.6048 36.47 98.6782 36.36C98.9348 36.6167 98.9165 36.9467 98.6232 37.35C98.3665 37.7167 98.1465 38.0283 97.9632 38.285C97.7065 38.615 97.3398 39.0733 96.8632 39.66C96.3865 40.21 95.8365 40.815 95.2132 41.475C94.5165 42.1717 93.6548 42.8683 92.6282 43.565C91.6015 44.2617 90.5565 44.61 89.4932 44.61ZM91.8032 31.96C92.9398 31.0067 94.3698 29.65 96.0932 27.89C97.8532 26.0933 99.5765 23.93 101.263 21.4C101.446 21.1067 101.74 20.6117 102.143 19.915C102.583 19.2183 103.023 18.43 103.463 17.55C103.94 16.6333 104.343 15.7533 104.673 14.91C105.003 14.03 105.168 13.2783 105.168 12.655C105.168 12.0683 105.003 11.775 104.673 11.775C104.27 11.775 103.738 12.1233 103.078 12.82C102.308 13.6267 101.428 14.8183 100.438 16.395C99.4848 17.935 98.4765 19.6583 97.4132 21.565C96.3498 23.4717 95.3232 25.3417 94.3332 27.175C93.3798 29.0083 92.5365 30.6033 91.8032 31.96ZM111.816 23.49C111.303 23.49 110.936 23.325 110.716 22.995C110.569 22.8117 110.496 22.5733 110.496 22.28C110.496 21.6933 110.771 21.2167 111.321 20.85C111.724 20.63 112.091 20.52 112.421 20.52C112.971 20.52 113.356 20.685 113.576 21.015C113.723 21.1983 113.796 21.4367 113.796 21.73C113.796 22.3167 113.503 22.7933 112.916 23.16C112.586 23.38 112.219 23.49 111.816 23.49ZM102.246 44.665C101.879 44.665 101.568 44.5917 101.311 44.445C101.091 44.2983 100.981 44.0233 100.981 43.62C100.981 43.1067 101.109 42.5017 101.366 41.805C101.659 41.1083 101.971 40.4117 102.301 39.715C102.668 39.0183 102.943 38.45 103.126 38.01C103.383 37.4967 103.694 36.8367 104.061 36.03C104.464 35.1867 104.831 34.3983 105.161 33.665C105.528 32.895 105.784 32.3633 105.931 32.07C105.418 32.62 104.794 33.3167 104.061 34.16C103.364 34.9667 102.704 35.755 102.081 36.525C101.458 37.295 100.981 37.9 100.651 38.34C100.541 38.4867 100.449 38.56 100.376 38.56C100.303 38.56 100.266 38.4683 100.266 38.285C100.266 37.9917 100.358 37.7167 100.541 37.46C101.238 36.58 102.008 35.59 102.851 34.49C103.731 33.39 104.519 32.3817 105.216 31.465C105.913 30.5117 106.353 29.8883 106.536 29.595C106.939 29.5217 107.526 29.4117 108.296 29.265C109.103 29.1183 109.653 28.9167 109.946 28.66C110.056 28.55 110.166 28.495 110.276 28.495C110.349 28.495 110.386 28.5683 110.386 28.715C110.423 28.825 110.386 28.9533 110.276 29.1C110.056 29.3567 109.671 29.98 109.121 30.97C108.571 31.96 107.984 33.06 107.361 34.27C106.774 35.4433 106.224 36.5067 105.711 37.46C105.198 38.45 104.758 39.4033 104.391 40.32C104.024 41.2367 103.841 41.8967 103.841 42.3C103.841 42.8133 104.098 43.07 104.611 43.07C105.088 43.07 105.693 42.7767 106.426 42.19C107.196 41.6033 107.966 40.9067 108.736 40.1C109.506 39.2567 110.184 38.4867 110.771 37.79C110.954 37.57 111.174 37.3133 111.431 37.02C111.724 36.69 111.908 36.4883 111.981 36.415C112.054 36.4883 112.091 36.6167 112.091 36.8C112.054 37.0567 111.963 37.3133 111.816 37.57C111.669 37.79 111.523 37.9917 111.376 38.175C110.606 39.1283 109.763 40.1183 108.846 41.145C107.929 42.135 106.921 42.9783 105.821 43.675C104.721 44.335 103.529 44.665 102.246 44.665ZM116.842 44.94C115.339 44.94 114.294 44.6467 113.707 44.06C113.12 43.4733 112.827 42.7583 112.827 41.915C112.827 40.8517 113.102 39.715 113.652 38.505C114.239 37.295 114.789 36.2683 115.302 35.425C115.889 34.545 116.677 33.6283 117.667 32.675C118.657 31.7217 119.739 30.915 120.912 30.255C122.085 29.595 123.222 29.265 124.322 29.265C125.275 29.265 125.935 29.5033 126.302 29.98C126.669 30.42 126.852 30.9517 126.852 31.575C126.852 32.7117 126.504 33.6467 125.807 34.38C125.147 35.1133 124.322 35.7183 123.332 36.195C122.342 36.635 121.389 37.0017 120.472 37.295C119.922 37.4417 119.28 37.5883 118.547 37.735C117.814 37.8817 117.117 37.955 116.457 37.955C116.2 38.615 115.999 39.2567 115.852 39.88C115.705 40.5033 115.632 41.0717 115.632 41.585C115.632 42.2083 115.779 42.7217 116.072 43.125C116.402 43.5283 116.934 43.73 117.667 43.73C117.96 43.73 118.309 43.6933 118.712 43.62C119.115 43.5467 119.555 43.4367 120.032 43.29C121.132 42.9233 122.214 42.3367 123.277 41.53C124.34 40.7233 125.312 39.8617 126.192 38.945C127.109 37.9917 127.805 37.2033 128.282 36.58C128.392 36.69 128.447 36.8183 128.447 36.965C128.447 37.1483 128.319 37.4417 128.062 37.845C127.329 38.8717 126.375 39.935 125.202 41.035C124.029 42.135 122.727 43.07 121.297 43.84C119.867 44.5733 118.382 44.94 116.842 44.94ZM116.897 36.855C117.374 36.8917 117.905 36.8917 118.492 36.855C119.115 36.7817 119.72 36.6533 120.307 36.47C121.81 36.03 122.892 35.3333 123.552 34.38C124.249 33.39 124.597 32.51 124.597 31.74C124.597 31.3 124.505 30.9333 124.322 30.64C124.139 30.3467 123.845 30.2 123.442 30.2C122.379 30.2 121.425 30.6033 120.582 31.41C119.739 32.18 119.005 33.0783 118.382 34.105C117.759 35.1317 117.264 36.0483 116.897 36.855Z" fill="url(#paint0_linear_69_1123)"/>
<defs>
<linearGradient id="paint0_linear_69_1123" x1="65" y1="29.5" x2="65" y2="44" gradientUnits="userSpaceOnUse">
<stop stop-color="#008C45"/>
<stop offset="1" stop-color="#CD212A"/>
</linearGradient>
</defs>
</svg>
