<svg width="39" height="39" viewBox="0 0 39 39" fill="none" xmlns="http://www.w3.org/2000/svg">
<path d="M12.3916 36.9999C13.3562 36.9999 14.1381 36.2145 14.1381 35.2456C14.1381 34.2767 13.3562 33.4912 12.3916 33.4912C11.427 33.4912 10.6451 34.2767 10.6451 35.2456C10.6451 36.2145 11.427 36.9999 12.3916 36.9999Z" stroke="black" stroke-width="3" stroke-linecap="round" stroke-linejoin="round"/>
<path d="M31.6033 36.9999C32.5679 36.9999 33.3498 36.2145 33.3498 35.2456C33.3498 34.2767 32.5679 33.4912 31.6033 33.4912C30.6387 33.4912 29.8568 34.2767 29.8568 35.2456C29.8568 36.2145 30.6387 36.9999 31.6033 36.9999Z" stroke="black" stroke-width="3" stroke-linecap="round" stroke-linejoin="round"/>
<path d="M2 2H5.49301L10.1387 23.7892C10.3091 24.5872 10.7512 25.3006 11.3887 25.8065C12.0263 26.3124 12.8194 26.5793 13.6317 26.5611H30.7126C31.5075 26.5598 32.2783 26.2862 32.8975 25.7854C33.5167 25.2846 33.9473 24.5866 34.1183 23.8068L37 10.7718H7.36178" stroke="black" stroke-width="3" stroke-linecap="round" stroke-linejoin="round"/>
</svg>
