<svg width="34" height="34" viewBox="0 0 34 34" fill="none" xmlns="http://www.w3.org/2000/svg">
<path d="M10.907 31.9997C11.7338 31.9997 12.404 31.3264 12.404 30.4959C12.404 29.6654 11.7338 28.9922 10.907 28.9922C10.0803 28.9922 9.41003 29.6654 9.41003 30.4959C9.41003 31.3264 10.0803 31.9997 10.907 31.9997Z" stroke="black" stroke-width="3" stroke-linecap="round" stroke-linejoin="round"/>
<path d="M27.3743 31.9997C28.2011 31.9997 28.8713 31.3264 28.8713 30.4959C28.8713 29.6654 28.2011 28.9922 27.3743 28.9922C26.5476 28.9922 25.8773 29.6654 25.8773 30.4959C25.8773 31.3264 26.5476 31.9997 27.3743 31.9997Z" stroke="black" stroke-width="3" stroke-linecap="round" stroke-linejoin="round"/>
<path d="M2 2H4.99401L8.97605 20.6765C9.12212 21.3605 9.501 21.9719 10.0475 22.4056C10.5939 22.8392 11.2738 23.068 11.9701 23.0524H26.6108C27.2922 23.0513 27.9528 22.8168 28.4836 22.3875C29.0143 21.9583 29.3834 21.36 29.5299 20.6915L32 9.51872H6.59581" stroke="black" stroke-width="3" stroke-linecap="round" stroke-linejoin="round"/>
</svg>
