<svg width="23" height="28" viewBox="0 0 23 28" fill="none" xmlns="http://www.w3.org/2000/svg">
<path d="M21.5625 27.3983H1.17188C0.861074 27.3983 0.563003 27.2902 0.343234 27.0979C0.123465 26.9056 0 26.6448 0 26.3729V6.92941C0 6.65746 0.123465 6.39665 0.343234 6.20435C0.563003 6.01205 0.861074 5.90402 1.17188 5.90402H21.5625C21.8733 5.90402 22.1714 6.01205 22.3911 6.20435C22.6109 6.39665 22.7344 6.65746 22.7344 6.92941V26.3729C22.7344 26.6448 22.6109 26.9056 22.3911 27.0979C22.1714 27.2902 21.8733 27.3983 21.5625 27.3983ZM2.34375 25.3475H20.3906V7.9548H2.34375V25.3475Z" fill="#9CA3AF"/>
<path d="M15.9368 11.5389C15.626 11.5389 15.3279 11.4309 15.1081 11.2386C14.8884 11.0463 14.7649 10.7855 14.7649 10.5135V4.94221C14.7458 4.1646 14.3794 3.42445 13.7442 2.88039C13.1089 2.33634 12.2554 2.03166 11.3665 2.03166C10.4775 2.03166 9.624 2.33634 8.98875 2.88039C8.35349 3.42445 7.98707 4.1646 7.96802 4.94221V10.5135C7.96802 10.7855 7.84455 11.0463 7.62478 11.2386C7.40501 11.4309 7.10694 11.5389 6.79614 11.5389C6.48534 11.5389 6.18727 11.4309 5.9675 11.2386C5.74773 11.0463 5.62427 10.7855 5.62427 10.5135V4.94221C5.64912 3.62401 6.26503 2.36715 7.33919 1.44263C8.41336 0.518115 9.85973 0 11.3665 0C12.8732 0 14.3196 0.518115 15.3937 1.44263C16.4679 2.36715 17.0838 3.62401 17.1086 4.94221V10.5135C17.1086 10.7855 16.9852 11.0463 16.7654 11.2386C16.5456 11.4309 16.2476 11.5389 15.9368 11.5389Z" fill="#9CA3AF"/>
</svg>
