<svg width="31" height="31" viewBox="0 0 31 31" fill="none" xmlns="http://www.w3.org/2000/svg">
<g clip-path="url(#clip0_208_395)">
<path d="M4.14545 5.8316C3.05658 7.05355 2.49506 8.65649 2.58336 10.2908C2.58336 15.5331 9.73885 22.3567 14.2084 25.9268V10.2908C14.2685 9.17717 14.027 8.07809 13.5224 7.10419C13.2865 6.64886 12.9932 6.2209 12.6463 5.8316C11.5574 4.60964 10.0295 3.86781 8.39586 3.7679C6.7622 3.86781 5.23433 4.60964 4.14545 5.8316Z" fill="#008C45"/>
<path d="M15.5 7L14.2084 10.2908V25.9268C14.6714 26.2966 15.1056 26.6316 15.5 26.9262C15.8945 26.6316 16.3287 26.2966 16.7917 25.9268V10.2908L15.5 7Z" fill="white"/>
<path d="M18.3538 5.8316C18.0335 6.19106 17.7588 6.5835 17.5329 7C16.9908 7.99935 16.7294 9.13727 16.7917 10.2908V25.9268C21.2612 22.3571 28.4167 15.5354 28.4167 10.2908C28.505 8.65649 27.9435 7.05355 26.8546 5.8316C25.7657 4.60964 24.2378 3.86781 22.6042 3.7679C20.9705 3.86781 19.4427 4.60964 18.3538 5.8316Z" fill="#CD212A"/>
<path fill-rule="evenodd" clip-rule="evenodd" d="M22.6042 1.18457C21.1497 1.20719 19.727 1.61321 18.4796 2.36163C17.2322 3.11004 16.2044 4.17435 15.5 5.44707C14.7956 4.17435 13.7678 3.11004 12.5205 2.36163C11.2731 1.61321 9.85034 1.20719 8.39586 1.18457C6.07724 1.28531 3.89273 2.29961 2.31958 4.00587C0.746429 5.71213 -0.0874836 7.97166 2.75052e-05 10.2908C2.75052e-05 19.0419 14.1515 29.1492 14.7534 29.578L15.5 30.1063L16.2466 29.578C16.8485 29.1517 31 19.0419 31 10.2908C31.0875 7.97166 30.2536 5.71213 28.6805 4.00587C27.1073 2.29961 24.9228 1.28531 22.6042 1.18457ZM2.58336 10.2908C2.49506 8.65649 3.05658 7.05355 4.14545 5.8316C5.23433 4.60964 6.7622 3.86781 8.39586 3.7679C10.0295 3.86781 11.5574 4.60964 12.6463 5.8316C12.9932 6.2209 13.2865 6.64886 13.5224 7.10419L13.5 7H15.5H17.5329C17.7588 6.5835 18.0335 6.19106 18.3538 5.8316C19.4427 4.60964 20.9705 3.86781 22.6042 3.7679C24.2378 3.86781 25.7657 4.60964 26.8546 5.8316C27.9435 7.05355 28.505 8.65649 28.4167 10.2908C28.4167 15.5354 21.2612 22.3571 16.7917 25.9268C16.3287 26.2966 15.8945 26.6316 15.5 26.9262C15.1056 26.6316 14.6714 26.2966 14.2084 25.9268C9.73885 22.3567 2.58336 15.5331 2.58336 10.2908Z" fill="black"/>
</g>
<defs>
<clipPath id="clip0_208_395">
<rect width="31" height="31" fill="white"/>
</clipPath>
</defs>
</svg>
