<svg width="31" height="31" viewBox="0 0 31 31" fill="none" xmlns="http://www.w3.org/2000/svg">
<g clip-path="url(#clip0_78_4664)">
<path d="M22.6042 1.18457C21.1497 1.20719 19.727 1.61321 18.4796 2.36163C17.2322 3.11004 16.2044 4.17435 15.5 5.44707C14.7956 4.17435 13.7678 3.11004 12.5205 2.36163C11.2731 1.61321 9.85034 1.20719 8.39586 1.18457C6.07724 1.28531 3.89273 2.29961 2.31958 4.00587C0.746429 5.71213 -0.0874836 7.97166 2.75052e-05 10.2908C2.75052e-05 19.0419 14.1515 29.1492 14.7534 29.578L15.5 30.1063L16.2466 29.578C16.8485 29.1517 31 19.0419 31 10.2908C31.0875 7.97166 30.2536 5.71213 28.6805 4.00587C27.1073 2.29961 24.9228 1.28531 22.6042 1.18457ZM15.5 26.9262C11.2982 23.7874 2.58336 16.0762 2.58336 10.2908C2.49506 8.65649 3.05658 7.05355 4.14545 5.8316C5.23433 4.60964 6.7622 3.86781 8.39586 3.7679C10.0295 3.86781 11.5574 4.60964 12.6463 5.8316C13.7351 7.05355 14.2967 8.65649 14.2084 10.2908H16.7917C16.7034 8.65649 17.2649 7.05355 18.3538 5.8316C19.4427 4.60964 20.9705 3.86781 22.6042 3.7679C24.2378 3.86781 25.7657 4.60964 26.8546 5.8316C27.9435 7.05355 28.505 8.65649 28.4167 10.2908C28.4167 16.0788 19.7018 23.7874 15.5 26.9262Z" fill="black"/>
</g>
<defs>
<clipPath id="clip0_78_4664">
<rect width="31" height="31" fill="white"/>
</clipPath>
</defs>
</svg>
